G04 #@! TF.GenerationSoftware,KiCad,Pcbnew,5.0.2-bee76a0~70~ubuntu18.04.1*
G04 #@! TF.CreationDate,2019-07-09T19:20:48+02:00*
G04 #@! TF.ProjectId,flash_adapter,666c6173-685f-4616-9461-707465722e6b,rev?*
G04 #@! TF.SameCoordinates,Original*
G04 #@! TF.FileFunction,Copper,L1,Top*
G04 #@! TF.FilePolarity,Positive*
%FSLAX46Y46*%
G04 Gerber Fmt 4.6, Leading zero omitted, Abs format (unit mm)*
G04 Created by KiCad (PCBNEW 5.0.2-bee76a0~70~ubuntu18.04.1) date Di 09 Jul 2019 19:20:48 CEST*
%MOMM*%
%LPD*%
G01*
G04 APERTURE LIST*
G04 #@! TA.AperFunction,ComponentPad*
%ADD10R,1.700000X1.700000*%
G04 #@! TD*
G04 #@! TA.AperFunction,ComponentPad*
%ADD11O,1.700000X1.700000*%
G04 #@! TD*
G04 #@! TA.AperFunction,SMDPad,CuDef*
%ADD12R,1.550000X0.600000*%
G04 #@! TD*
G04 #@! TA.AperFunction,Conductor*
%ADD13C,0.750000*%
G04 #@! TD*
G04 APERTURE END LIST*
D10*
G04 #@! TO.P,J1,1*
G04 #@! TO.N,/3.3V*
X15000000Y-3000000D03*
D11*
G04 #@! TO.P,J1,2*
G04 #@! TO.N,/MOSI*
X12460000Y-3000000D03*
G04 #@! TO.P,J1,3*
G04 #@! TO.N,/SCK*
X9920000Y-3000000D03*
G04 #@! TO.P,J1,4*
G04 #@! TO.N,/CS*
X7380000Y-3000000D03*
G04 #@! TO.P,J1,5*
G04 #@! TO.N,/MISO*
X4840000Y-3000000D03*
G04 #@! TO.P,J1,6*
G04 #@! TO.N,/GND*
X2300000Y-3000000D03*
G04 #@! TD*
D12*
G04 #@! TO.P,U1,1*
G04 #@! TO.N,/CS*
X5705001Y-18820001D03*
G04 #@! TO.P,U1,2*
G04 #@! TO.N,/MISO*
X5705001Y-20090001D03*
G04 #@! TO.P,U1,3*
G04 #@! TO.N,Net-(U1-Pad3)*
X5705001Y-21360001D03*
G04 #@! TO.P,U1,4*
G04 #@! TO.N,/GND*
X5705001Y-22630001D03*
G04 #@! TO.P,U1,5*
G04 #@! TO.N,/MOSI*
X11105001Y-22630001D03*
G04 #@! TO.P,U1,6*
G04 #@! TO.N,/SCK*
X11105001Y-21360001D03*
G04 #@! TO.P,U1,7*
G04 #@! TO.N,Net-(U1-Pad7)*
X11105001Y-20090001D03*
G04 #@! TO.P,U1,8*
G04 #@! TO.N,/3.3V*
X11105001Y-18820001D03*
G04 #@! TD*
D13*
G04 #@! TO.N,/MISO*
X4155000Y-20065000D02*
X4155000Y-6845000D01*
X5705001Y-20090001D02*
X4180001Y-20090001D01*
X4180001Y-20090001D02*
X4155000Y-20065000D01*
X4155000Y-6845000D02*
X5000000Y-6000000D01*
X4840000Y-5840000D02*
X4840000Y-3000000D01*
X5000000Y-6000000D02*
X4840000Y-5840000D01*
G04 #@! TO.N,/MOSI*
X13529999Y-1374999D02*
X17374999Y-1374999D01*
X13309999Y-1594999D02*
X13529999Y-1374999D01*
X12460000Y-3000000D02*
X13309999Y-2150001D01*
X13309999Y-2150001D02*
X13309999Y-1594999D01*
X17374999Y-1374999D02*
X18000000Y-2000000D01*
X12630001Y-22630001D02*
X11105001Y-22630001D01*
X18000000Y-17260002D02*
X12630001Y-22630001D01*
X18000000Y-2000000D02*
X18000000Y-17260002D01*
G04 #@! TO.N,/SCK*
X9580001Y-21360001D02*
X11105001Y-21360001D01*
X9555000Y-21335000D02*
X9580001Y-21360001D01*
X9555000Y-17900000D02*
X9555000Y-21335000D01*
X9920000Y-17535000D02*
X9555000Y-17900000D01*
X9920000Y-3000000D02*
X9920000Y-17535000D01*
G04 #@! TO.N,/CS*
X7380000Y-3000000D02*
X7380000Y-11620000D01*
X5705001Y-13294999D02*
X5705001Y-18820001D01*
X7380000Y-11620000D02*
X5705001Y-13294999D01*
G04 #@! TO.N,/3.3V*
X11580001Y-18820001D02*
X11105001Y-18820001D01*
X15000000Y-15400002D02*
X11580001Y-18820001D01*
X15000000Y-3000000D02*
X15000000Y-15400002D01*
G04 #@! TO.N,/GND*
X2300000Y-4202081D02*
X2300000Y-3000000D01*
X4180001Y-22630001D02*
X2300000Y-20750000D01*
X2300000Y-20750000D02*
X2300000Y-4202081D01*
X5705001Y-22630001D02*
X4180001Y-22630001D01*
G04 #@! TD*
M02*
