<?xml version="1.0" standalone="no"?>
<!DOCTYPE svg PUBLIC "-//W3C//DTD SVG 1.1//EN"
"http://www.w3.org/Graphics/SVG/1.1/DTD/svg11.dtd">
<svg width="73.8898" height="104.126" viewBox="0 0 1539.37 2169.29" version="1.1"
xmlns="http://www.w3.org/2000/svg"
xmlns:xlink="http://www.w3.org/1999/xlink">
<g fill-rule="evenodd"><path d="M 21.3465,2153.51 L 19.2516,2153.03 L 17.2649,2151.59 L 16.2586,2150.04 L 15.748,2147.64 L 15.748,21.6535 L 15.8615,20.5014 L 16.7433,18.3726 L 18.3726,16.7433 L 19.3936,16.1976 L 21.6535,15.748 L 1517.72,15.748 L 1518.87,15.8615 L 1521,16.7433 L 1522.63,18.3726 L 1523.51,20.5014 L 1523.62,21.6535 L 1523.62,2147.64 L 1523.51,2148.79 L 1522.63,2150.92 L 1521,2152.55 L 1518.87,2153.43 L 1517.72,2153.54 L 21.3465,2153.51M 27.5592,2141.73 L 1511.81,2141.73 L 1511.81,27.5591 L 27.5592,27.5591 L 27.5592,2141.73 z " style="fill-opacity:1.000000;fill:rgb(103,198,105);stroke:rgb(0,0,0);stroke-width:2"/></g>
<g fill-rule="evenodd"><path d="M 94.5205,1990.77 L 96.4979,1971.96 L 102.087,1955.18 L 111.043,1939.92 L 122.495,1927.25 L 137.362,1916.57 L 152.977,1909.65 L 170.903,1905.94 L 188.592,1906.07 L 205.291,1909.65 L 221.975,1917.19 L 235.773,1927.25 L 247.225,1939.92 L 256.181,1955.18 L 261.93,1972.56 L 263.78,1990.16 L 262.027,2007.15 L 256.462,2024.59 L 247.95,2039.39 L 236.21,2052.62 L 220.906,2063.74 L 204.694,2070.82 L 187.364,2074.37 L 170.286,2074.34 L 152.4,2070.44 L 136.293,2063.13 L 122.495,2053.06 L 110.317,2039.39 L 101.806,2024.59 L 96.4979,2008.35 L 94.5205,1990.77M 201.63,2059.4 L 215.535,2053.21 L 227.848,2044.26 L 238.032,2032.95 L 245.642,2019.77 L 250.345,2005.29 L 251.936,1990.16 L 250.345,1975.02 L 245.642,1960.55 L 238.032,1947.37 L 227.848,1936.06 L 215.534,1927.11 L 201.631,1920.92 L 186.743,1917.75 L 171.525,1917.75 L 156.636,1920.92 L 142.733,1927.11 L 130.419,1936.06 L 120.235,1947.37 L 112.626,1960.55 L 107.923,1975.02 L 106.332,1990.16 L 107.923,2005.29 L 112.626,2019.77 L 120.236,2032.95 L 130.419,2044.26 L 142.733,2053.21 L 156.637,2059.4 L 171.525,2062.56 L 186.743,2062.56 L 201.63,2059.4 z " style="fill-opacity:1.000000;fill:rgb(115,81,255);stroke:rgb(0,0,0);stroke-width:2"/></g>
<g fill-rule="evenodd"><path d="M 1275.62,1990.77 L 1277.6,1971.96 L 1283.19,1955.18 L 1292.15,1939.92 L 1303.6,1927.25 L 1318.46,1916.57 L 1334.68,1909.49 L 1352.01,1905.94 L 1369.08,1905.98 L 1386.97,1909.88 L 1403.08,1917.19 L 1416.88,1927.25 L 1428.33,1939.92 L 1437.28,1955.18 L 1443.03,1972.56 L 1444.88,1990.16 L 1443.03,2007.76 L 1437.79,2024.01 L 1428.72,2039.91 L 1417.31,2052.62 L 1402.01,2063.74 L 1385.8,2070.82 L 1368.47,2074.37 L 1351.39,2074.34 L 1333.5,2070.44 L 1317.39,2063.13 L 1303.6,2053.06 L 1292.15,2040.39 L 1282.91,2024.59 L 1277.44,2007.76 L 1275.62,1990.77M 1323.84,2053.21 L 1337.74,2059.4 L 1352.63,2062.56 L 1367.85,2062.56 L 1382.73,2059.4 L 1396.64,2053.21 L 1408.95,2044.26 L 1419.13,2032.95 L 1426.74,2019.77 L 1431.45,2005.29 L 1433.04,1990.16 L 1431.45,1975.02 L 1426.74,1960.55 L 1419.13,1947.37 L 1408.95,1936.06 L 1396.64,1927.11 L 1382.73,1920.92 L 1367.85,1917.75 L 1352.63,1917.75 L 1337.74,1920.92 L 1323.84,1927.11 L 1311.52,1936.06 L 1301.34,1947.37 L 1293.73,1960.55 L 1289.03,1975.02 L 1287.43,1990.16 L 1289.03,2005.29 L 1293.73,2019.77 L 1301.34,2032.95 L 1311.52,2044.26 L 1323.84,2053.21 z " style="fill-opacity:1.000000;fill:rgb(74,236,41);stroke:rgb(0,0,0);stroke-width:2"/></g>
</svg>
