<?xml version="1.0" standalone="no"?>
<!DOCTYPE svg PUBLIC "-//W3C//DTD SVG 1.1//EN"
"http://www.w3.org/Graphics/SVG/1.1/DTD/svg11.dtd">
<svg width="73.8898" height="104.126" viewBox="0 0 1539.37 2169.29" version="1.1"
xmlns="http://www.w3.org/2000/svg"
xmlns:xlink="http://www.w3.org/1999/xlink">
<g fill-rule="evenodd"><path d="M -3.55271e-14,2169.29 L -3.55271e-14,7.81597e-14 L 1539.37,7.81597e-14 L 1539.37,2169.29 L -3.55271e-14,2169.29M 61.1306,1987.26 L 61.1439,1994.53 L 62.136,2012.22 L 62.9026,2019.34 L 65.624,2036.42 L 67.3263,2044.4 L 71.8844,2061.48 L 74.939,2070.91 L 81.4038,2087.89 L 82.7363,2088.48 L 93.5867,2092.68 L 110.666,2098.25 L 119.286,2100.59 L 136.975,2104.42 L 144.717,2105.67 L 163.023,2107.64 L 170.218,2108.03 L 187.296,2108.05 L 194.196,2107.71 L 211.886,2105.91 L 219.499,2104.73 L 237.188,2101.04 L 246.244,2098.62 L 265.16,2092.47 L 276.274,2088.17 L 293.964,2080.22 L 307.168,2073.43 L 324.245,2063.55 L 342.04,2051.9 L 360.346,2038.52 L 383.447,2019.67 L 400.527,2004.26 L 432.104,1972.48 L 449.799,1952.83 L 472.945,1925.54 L 496.091,1895.09 L 514.398,1869.75 L 548.22,1819.87 L 582.041,1763.86 L 599.73,1732.96 L 650.671,1637.55 L 701.611,1529.28 L 718.691,1490.83 L 749.108,1420.18 L 636.105,1468.93 L 534.513,1517.67 L 500.918,1534.75 L 425.18,1575.41 L 357.947,1616.08 L 329.594,1634.38 L 288.872,1662.07 L 252.462,1689.75 L 231.332,1706.83 L 189.784,1743.85 L 171.963,1761.54 L 146.736,1789.24 L 131.832,1807.55 L 116.818,1828.04 L 105.705,1845.12 L 96.9042,1860.25 L 87.5144,1878.56 L 82.0584,1890.71 L 75.484,1907.79 L 72.3847,1917.23 L 67.5757,1934.92 L 65.8006,1943.1 L 62.9332,1960.79 L 62.1223,1968.35 L 61.1306,1987.26M 1107.96,1973.14 L 1139.96,2005.3 L 1157.04,2020.64 L 1180.1,2039.38 L 1197.79,2052.24 L 1215.68,2063.87 L 1233.99,2074.38 L 1247.14,2081.07 L 1264.22,2088.65 L 1274.69,2092.68 L 1291.77,2098.25 L 1300.39,2100.59 L 1318.08,2104.42 L 1325.82,2105.67 L 1344.13,2107.64 L 1351.32,2108.03 L 1368.4,2108.05 L 1375.3,2107.71 L 1392.99,2105.91 L 1400.6,2104.73 L 1418.29,2101.04 L 1427.35,2098.62 L 1446.26,2092.47 L 1457.09,2088.3 L 1457.98,2087.9 L 1464.18,2071.72 L 1467.34,2061.94 L 1472.2,2043.63 L 1473.88,2035.66 L 1476.57,2018.58 L 1477.33,2011.36 L 1478.25,1993.66 L 1478.25,1986.65 L 1477.33,1968.95 L 1476.53,1961.48 L 1473.58,1943.17 L 1471.79,1934.92 L 1466.98,1917.23 L 1463.88,1907.79 L 1457.31,1890.71 L 1452.07,1878.99 L 1443.39,1861.91 L 1434.88,1847.14 L 1423.48,1829.45 L 1408.9,1809.33 L 1394.16,1791.03 L 1369.35,1763.51 L 1352.3,1746.44 L 1311.86,1710.06 L 1290.17,1692.37 L 1255.37,1665.62 L 1216.53,1638.88 L 1189.5,1621.19 L 1122.9,1580.41 L 1047.7,1539.63 L 1012.01,1521.32 L 907.275,1470.75 L 790.259,1420.18 L 820.676,1490.83 L 837.756,1529.28 L 888.697,1637.55 L 939.637,1732.96 L 957.326,1763.86 L 990.89,1819.47 L 1024.46,1869.04 L 1042.14,1893.57 L 1065.59,1924.47 L 1089.04,1952.14 L 1107.96,1973.14 z " style="fill-opacity:0.200000;fill:rgb(103,198,105);"/></g>
<g fill-rule="evenodd"><path d="M 61.1439,1994.53 L 61.1306,1987.26 L 62.1223,1968.35 L 62.9332,1960.79 L 65.8006,1943.1 L 67.5757,1934.92 L 72.3847,1917.23 L 75.484,1907.79 L 82.0584,1890.71 L 87.5144,1878.56 L 96.9042,1860.25 L 105.705,1845.12 L 116.818,1828.04 L 131.832,1807.55 L 146.736,1789.24 L 171.963,1761.54 L 189.784,1743.85 L 231.332,1706.83 L 252.462,1689.75 L 288.872,1662.07 L 329.594,1634.38 L 357.947,1616.08 L 425.18,1575.41 L 500.918,1534.75 L 534.513,1517.67 L 636.105,1468.93 L 749.108,1420.18 L 718.691,1490.83 L 701.611,1529.28 L 650.671,1637.55 L 599.73,1732.96 L 582.041,1763.86 L 548.22,1819.87 L 514.398,1869.75 L 496.091,1895.09 L 472.945,1925.54 L 449.799,1952.83 L 432.104,1972.48 L 400.527,2004.26 L 383.447,2019.67 L 360.346,2038.52 L 342.04,2051.9 L 324.245,2063.55 L 307.168,2073.43 L 293.964,2080.22 L 276.274,2088.17 L 265.16,2092.47 L 246.244,2098.62 L 237.188,2101.04 L 219.499,2104.73 L 211.886,2105.91 L 194.196,2107.71 L 187.296,2108.05 L 170.218,2108.03 L 163.023,2107.64 L 144.717,2105.67 L 136.975,2104.42 L 119.286,2100.59 L 110.666,2098.25 L 93.5867,2092.68 L 82.7363,2088.48 L 81.4038,2087.89 L 74.939,2070.91 L 71.8844,2061.48 L 67.3263,2044.4 L 65.624,2036.42 L 62.9026,2019.34 L 62.136,2012.22 L 61.1439,1994.53 z " style="fill-opacity:0.200000;fill:rgb(115,81,255);"/></g>
<g fill-rule="evenodd"><path d="M 1139.96,2005.3 L 1107.96,1973.14 L 1089.04,1952.14 L 1065.59,1924.47 L 1042.14,1893.57 L 1024.46,1869.04 L 990.89,1819.47 L 957.326,1763.86 L 939.637,1732.96 L 888.697,1637.55 L 837.756,1529.28 L 820.676,1490.83 L 790.259,1420.18 L 907.275,1470.75 L 1012.01,1521.32 L 1047.7,1539.63 L 1122.9,1580.41 L 1189.5,1621.19 L 1216.53,1638.88 L 1255.37,1665.62 L 1290.17,1692.37 L 1311.86,1710.06 L 1352.3,1746.44 L 1369.35,1763.51 L 1394.16,1791.03 L 1408.9,1809.33 L 1423.48,1829.45 L 1434.88,1847.14 L 1443.39,1861.91 L 1452.07,1878.99 L 1457.31,1890.71 L 1463.88,1907.79 L 1466.98,1917.23 L 1471.79,1934.92 L 1473.58,1943.17 L 1476.53,1961.48 L 1477.33,1968.95 L 1478.25,1986.65 L 1478.25,1993.66 L 1477.33,2011.36 L 1476.57,2018.58 L 1473.88,2035.66 L 1472.2,2043.63 L 1467.34,2061.94 L 1464.18,2071.72 L 1457.98,2087.9 L 1457.09,2088.3 L 1446.26,2092.47 L 1427.35,2098.62 L 1418.29,2101.04 L 1400.6,2104.73 L 1392.99,2105.91 L 1375.3,2107.71 L 1368.4,2108.05 L 1351.32,2108.03 L 1344.13,2107.64 L 1325.82,2105.67 L 1318.08,2104.42 L 1300.39,2100.59 L 1291.77,2098.25 L 1274.69,2092.68 L 1264.22,2088.65 L 1247.14,2081.07 L 1233.99,2074.38 L 1215.68,2063.87 L 1197.79,2052.24 L 1180.1,2039.38 L 1157.04,2020.64 L 1139.96,2005.3 z " style="fill-opacity:0.200000;fill:rgb(74,236,41);"/></g>
<polyline points="7.87554,2147.64 7.87554,21.6535 10.1975,13.9995 14.6615,9.79954 21.6535,7.87554 1517.72,7.87554 1525.37,10.1975 1529.17,13.9995 1531.5,21.6535 1531.5,2147.64 1529.17,2155.29 1524.01,2159.82 1517.72,2161.42 21.3475,2161.38 15.9955,2160.2 11.5535,2157.01 8.98554,2153.05 7.87554,2147.64" style="stroke:rgb(103,198,105);stroke-width:15.748031;fill:none;stroke-opacity:0.5;stroke-linecap:round;stroke-linejoin:round;;fill:none"/>
<polyline points="7.87554,2147.64 7.87554,21.6535 10.1975,13.9995 14.6615,9.79954 21.6535,7.87554 1517.72,7.87554 1525.37,10.1975 1529.17,13.9995 1531.5,21.6535 1531.5,2147.64 1529.17,2155.29 1524.01,2159.82 1517.72,2161.42 21.3475,2161.38 15.9955,2160.2 11.5535,2157.01 8.98554,2153.05 7.87554,2147.64" style="stroke:rgb(0,0,0);stroke-width:1px;fill:none;stroke-opacity:1;stroke-linecap:round;stroke-linejoin:round;;fill:none"/>
<polyline points="35.4315,2133.86 35.4315,35.4315 1503.94,35.4315 1503.94,2133.86 35.4315,2133.86" style="stroke:rgb(103,198,105);stroke-width:15.748031;fill:none;stroke-opacity:0.5;stroke-linecap:round;stroke-linejoin:round;;fill:none"/>
<polyline points="35.4315,2133.86 35.4315,35.4315 1503.94,35.4315 1503.94,2133.86 35.4315,2133.86" style="stroke:rgb(0,0,0);stroke-width:1px;fill:none;stroke-opacity:1;stroke-linecap:round;stroke-linejoin:round;;fill:none"/>
<polyline points="86.6455,1990.8 88.8015,1970.3 94.6155,1952.69 104.252,1935.94 116.652,1921.97 132.766,1910.18 149.788,1902.45 170.96,1898.07 190.244,1898.37 207.75,1902.17 226.614,1910.83 241.614,1921.97 254.014,1935.94 263.354,1951.93 269.626,1970.9 271.61,1989.33 269.858,2007.95 263.666,2027.76 254.776,2043.32 242.1,2057.85 224.056,2070.96 206.274,2078.53 187.348,2082.25 169.434,2082.17 149.92,2077.91 133.038,2070.3 117.204,2058.89 104.438,2044.63 94.9795,2028.51 89.0135,2010.8 86.6455,1990.8" style="stroke:rgb(115,81,255);stroke-width:15.748031;fill:none;stroke-opacity:0.5;stroke-linecap:round;stroke-linejoin:round;;fill:none"/>
<polyline points="86.6455,1990.8 88.8015,1970.3 94.6155,1952.69 104.252,1935.94 116.652,1921.97 132.766,1910.18 149.788,1902.45 170.96,1898.07 190.244,1898.37 207.75,1902.17 226.614,1910.83 241.614,1921.97 254.014,1935.94 263.354,1951.93 269.626,1970.9 271.61,1989.33 269.858,2007.95 263.666,2027.76 254.776,2043.32 242.1,2057.85 224.056,2070.96 206.274,2078.53 187.348,2082.25 169.434,2082.17 149.92,2077.91 133.038,2070.3 117.204,2058.89 104.438,2044.63 94.9795,2028.51 89.0135,2010.8 86.6455,1990.8" style="stroke:rgb(0,0,0);stroke-width:1px;fill:none;stroke-opacity:1;stroke-linecap:round;stroke-linejoin:round;;fill:none"/>
<polyline points="114.248,1990.16 115.666,2003.65 119.858,2016.55 126.64,2028.29 135.716,2038.38 146.69,2046.35 159.084,2051.87 172.352,2054.69 185.916,2054.69 199.184,2051.87 211.576,2046.35 222.55,2038.38 231.626,2028.3 238.408,2016.55 242.6,2003.65 244.018,1990.16 242.6,1976.67 238.408,1963.77 231.626,1952.02 222.55,1941.94 211.576,1933.96 199.184,1928.45 185.914,1925.63 172.352,1925.63 159.082,1928.45 146.692,1933.96 135.716,1941.94 126.64,1952.02 119.858,1963.77 115.666,1976.67 114.248,1990.16" style="stroke:rgb(115,81,255);stroke-width:15.748031;fill:none;stroke-opacity:0.5;stroke-linecap:round;stroke-linejoin:round;;fill:none"/>
<polyline points="114.248,1990.16 115.666,2003.65 119.858,2016.55 126.64,2028.29 135.716,2038.38 146.69,2046.35 159.084,2051.87 172.352,2054.69 185.916,2054.69 199.184,2051.87 211.576,2046.35 222.55,2038.38 231.626,2028.3 238.408,2016.55 242.6,2003.65 244.018,1990.16 242.6,1976.67 238.408,1963.77 231.626,1952.02 222.55,1941.94 211.576,1933.96 199.184,1928.45 185.914,1925.63 172.352,1925.63 159.082,1928.45 146.692,1933.96 135.716,1941.94 126.64,1952.02 119.858,1963.77 115.666,1976.67 114.248,1990.16" style="stroke:rgb(0,0,0);stroke-width:1px;fill:none;stroke-opacity:1;stroke-linecap:round;stroke-linejoin:round;;fill:none"/>
<polyline points="1267.75,1990.78 1269.9,1970.3 1275.72,1952.69 1285.35,1935.94 1297.76,1921.97 1315.31,1909.35 1332.3,1901.99 1352.02,1898.07 1369.93,1898.15 1389.45,1902.4 1407.72,1910.83 1422.72,1921.97 1435.12,1935.94 1444.46,1951.93 1450.73,1970.9 1452.76,1990.16 1450.86,2008.58 1445.28,2026.43 1435.1,2044.52 1423.17,2057.88 1405.16,2070.96 1387.38,2078.53 1368.45,2082.25 1350.54,2082.17 1331.02,2077.91 1312.75,2069.49 1297.76,2058.34 1285.35,2044.36 1275.72,2027.81 1269.95,2010.19 1267.75,1990.78" style="stroke:rgb(74,236,41);stroke-width:15.748031;fill:none;stroke-opacity:0.5;stroke-linecap:round;stroke-linejoin:round;;fill:none"/>
<polyline points="1267.75,1990.78 1269.9,1970.3 1275.72,1952.69 1285.35,1935.94 1297.76,1921.97 1315.31,1909.35 1332.3,1901.99 1352.02,1898.07 1369.93,1898.15 1389.45,1902.4 1407.72,1910.83 1422.72,1921.97 1435.12,1935.94 1444.46,1951.93 1450.73,1970.9 1452.76,1990.16 1450.86,2008.58 1445.28,2026.43 1435.1,2044.52 1423.17,2057.88 1405.16,2070.96 1387.38,2078.53 1368.45,2082.25 1350.54,2082.17 1331.02,2077.91 1312.75,2069.49 1297.76,2058.34 1285.35,2044.36 1275.72,2027.81 1269.95,2010.19 1267.75,1990.78" style="stroke:rgb(0,0,0);stroke-width:1px;fill:none;stroke-opacity:1;stroke-linecap:round;stroke-linejoin:round;;fill:none"/>
<polyline points="1295.35,1990.16 1296.77,2003.65 1300.96,2016.55 1307.74,2028.29 1316.82,2038.38 1327.79,2046.35 1340.19,2051.87 1353.45,2054.69 1367.02,2054.69 1380.29,2051.87 1392.68,2046.35 1403.65,2038.38 1412.73,2028.3 1419.51,2016.55 1423.7,2003.65 1425.12,1990.16 1423.7,1976.67 1419.51,1963.77 1412.73,1952.02 1403.65,1941.94 1392.68,1933.96 1380.29,1928.45 1367.02,1925.63 1353.45,1925.63 1340.18,1928.45 1327.79,1933.96 1316.82,1941.94 1307.74,1952.02 1300.96,1963.77 1296.77,1976.67 1295.35,1990.16" style="stroke:rgb(74,236,41);stroke-width:15.748031;fill:none;stroke-opacity:0.5;stroke-linecap:round;stroke-linejoin:round;;fill:none"/>
<polyline points="1295.35,1990.16 1296.77,2003.65 1300.96,2016.55 1307.74,2028.29 1316.82,2038.38 1327.79,2046.35 1340.19,2051.87 1353.45,2054.69 1367.02,2054.69 1380.29,2051.87 1392.68,2046.35 1403.65,2038.38 1412.73,2028.3 1419.51,2016.55 1423.7,2003.65 1425.12,1990.16 1423.7,1976.67 1419.51,1963.77 1412.73,1952.02 1403.65,1941.94 1392.68,1933.96 1380.29,1928.45 1367.02,1925.63 1353.45,1925.63 1340.18,1928.45 1327.79,1933.96 1316.82,1941.94 1307.74,1952.02 1300.96,1963.77 1296.77,1976.67 1295.35,1990.16" style="stroke:rgb(0,0,0);stroke-width:1px;fill:none;stroke-opacity:1;stroke-linecap:round;stroke-linejoin:round;;fill:none"/>
<g fill-rule="evenodd"><path d="M 21.3465,2153.51 L 19.2516,2153.03 L 17.2649,2151.59 L 16.2586,2150.04 L 15.748,2147.64 L 15.748,21.6535 L 15.8615,20.5014 L 16.7433,18.3726 L 18.3726,16.7433 L 19.3936,16.1976 L 21.6535,15.748 L 1517.72,15.748 L 1518.87,15.8615 L 1521,16.7433 L 1522.63,18.3726 L 1523.51,20.5014 L 1523.62,21.6535 L 1523.62,2147.64 L 1523.51,2148.79 L 1522.63,2150.92 L 1521,2152.55 L 1518.87,2153.43 L 1517.72,2153.54 L 21.3465,2153.51M 27.5592,2141.73 L 1511.81,2141.73 L 1511.81,27.5591 L 27.5592,27.5591 L 27.5592,2141.73 z " style="fill-opacity:1.000000;fill:rgb(103,198,105);stroke:rgb(0,0,0);stroke-width:2"/></g>
<g fill-rule="evenodd"><path d="M 94.5205,1990.77 L 96.4979,1971.96 L 102.087,1955.18 L 111.043,1939.92 L 122.495,1927.25 L 137.362,1916.57 L 152.977,1909.65 L 170.903,1905.94 L 188.592,1906.07 L 205.291,1909.65 L 221.975,1917.19 L 235.773,1927.25 L 247.225,1939.92 L 256.181,1955.18 L 261.93,1972.56 L 263.78,1990.16 L 262.027,2007.15 L 256.462,2024.59 L 247.95,2039.39 L 236.21,2052.62 L 220.906,2063.74 L 204.694,2070.82 L 187.364,2074.37 L 170.286,2074.34 L 152.4,2070.44 L 136.293,2063.13 L 122.495,2053.06 L 110.317,2039.39 L 101.806,2024.59 L 96.4979,2008.35 L 94.5205,1990.77M 201.63,2059.4 L 215.535,2053.21 L 227.848,2044.26 L 238.032,2032.95 L 245.642,2019.77 L 250.345,2005.29 L 251.936,1990.16 L 250.345,1975.02 L 245.642,1960.55 L 238.032,1947.37 L 227.848,1936.06 L 215.534,1927.11 L 201.631,1920.92 L 186.743,1917.75 L 171.525,1917.75 L 156.636,1920.92 L 142.733,1927.11 L 130.419,1936.06 L 120.235,1947.37 L 112.626,1960.55 L 107.923,1975.02 L 106.332,1990.16 L 107.923,2005.29 L 112.626,2019.77 L 120.236,2032.95 L 130.419,2044.26 L 142.733,2053.21 L 156.637,2059.4 L 171.525,2062.56 L 186.743,2062.56 L 201.63,2059.4 z " style="fill-opacity:1.000000;fill:rgb(115,81,255);stroke:rgb(0,0,0);stroke-width:2"/></g>
<g fill-rule="evenodd"><path d="M 1275.62,1990.77 L 1277.6,1971.96 L 1283.19,1955.18 L 1292.15,1939.92 L 1303.6,1927.25 L 1318.46,1916.57 L 1334.68,1909.49 L 1352.01,1905.94 L 1369.08,1905.98 L 1386.97,1909.88 L 1403.08,1917.19 L 1416.88,1927.25 L 1428.33,1939.92 L 1437.28,1955.18 L 1443.03,1972.56 L 1444.88,1990.16 L 1443.03,2007.76 L 1437.79,2024.01 L 1428.72,2039.91 L 1417.31,2052.62 L 1402.01,2063.74 L 1385.8,2070.82 L 1368.47,2074.37 L 1351.39,2074.34 L 1333.5,2070.44 L 1317.39,2063.13 L 1303.6,2053.06 L 1292.15,2040.39 L 1282.91,2024.59 L 1277.44,2007.76 L 1275.62,1990.77M 1323.84,2053.21 L 1337.74,2059.4 L 1352.63,2062.56 L 1367.85,2062.56 L 1382.73,2059.4 L 1396.64,2053.21 L 1408.95,2044.26 L 1419.13,2032.95 L 1426.74,2019.77 L 1431.45,2005.29 L 1433.04,1990.16 L 1431.45,1975.02 L 1426.74,1960.55 L 1419.13,1947.37 L 1408.95,1936.06 L 1396.64,1927.11 L 1382.73,1920.92 L 1367.85,1917.75 L 1352.63,1917.75 L 1337.74,1920.92 L 1323.84,1927.11 L 1311.52,1936.06 L 1301.34,1947.37 L 1293.73,1960.55 L 1289.03,1975.02 L 1287.43,1990.16 L 1289.03,2005.29 L 1293.73,2019.77 L 1301.34,2032.95 L 1311.52,2044.26 L 1323.84,2053.21 z " style="fill-opacity:1.000000;fill:rgb(74,236,41);stroke:rgb(0,0,0);stroke-width:2"/></g>
</svg>
