<?xml version="1.0" standalone="no"?>
<!DOCTYPE svg PUBLIC "-//W3C//DTD SVG 1.1//EN"
"http://www.w3.org/Graphics/SVG/1.1/DTD/svg11.dtd">
<svg width="73.8898" height="104.126" viewBox="0 0 1539.37 2169.29" version="1.1"
xmlns="http://www.w3.org/2000/svg"
xmlns:xlink="http://www.w3.org/1999/xlink">
<polyline points="7.87554,2147.64 7.87554,21.6535 10.1975,13.9995 14.6615,9.79954 21.6535,7.87554 1517.72,7.87554 1525.37,10.1975 1529.17,13.9995 1531.5,21.6535 1531.5,2147.64 1529.17,2155.29 1524.01,2159.82 1517.72,2161.42 21.3475,2161.38 15.9955,2160.2 11.5535,2157.01 8.98554,2153.05 7.87554,2147.64" style="stroke:rgb(103,198,105);stroke-width:15.748031;fill:none;stroke-opacity:0.5;stroke-linecap:round;stroke-linejoin:round;;fill:none"/>
<polyline points="7.87554,2147.64 7.87554,21.6535 10.1975,13.9995 14.6615,9.79954 21.6535,7.87554 1517.72,7.87554 1525.37,10.1975 1529.17,13.9995 1531.5,21.6535 1531.5,2147.64 1529.17,2155.29 1524.01,2159.82 1517.72,2161.42 21.3475,2161.38 15.9955,2160.2 11.5535,2157.01 8.98554,2153.05 7.87554,2147.64" style="stroke:rgb(0,0,0);stroke-width:1px;fill:none;stroke-opacity:1;stroke-linecap:round;stroke-linejoin:round;;fill:none"/>
<polyline points="35.4315,2133.86 35.4315,35.4315 1503.94,35.4315 1503.94,2133.86 35.4315,2133.86" style="stroke:rgb(103,198,105);stroke-width:15.748031;fill:none;stroke-opacity:0.5;stroke-linecap:round;stroke-linejoin:round;;fill:none"/>
<polyline points="35.4315,2133.86 35.4315,35.4315 1503.94,35.4315 1503.94,2133.86 35.4315,2133.86" style="stroke:rgb(0,0,0);stroke-width:1px;fill:none;stroke-opacity:1;stroke-linecap:round;stroke-linejoin:round;;fill:none"/>
<polyline points="86.6455,1990.8 88.8015,1970.3 94.6155,1952.69 104.252,1935.94 116.652,1921.97 132.766,1910.18 149.788,1902.45 170.96,1898.07 190.244,1898.37 207.75,1902.17 226.614,1910.83 241.614,1921.97 254.014,1935.94 263.354,1951.93 269.626,1970.9 271.61,1989.33 269.858,2007.95 263.666,2027.76 254.776,2043.32 242.1,2057.85 224.056,2070.96 206.274,2078.53 187.348,2082.25 169.434,2082.17 149.92,2077.91 133.038,2070.3 117.204,2058.89 104.438,2044.63 94.9795,2028.51 89.0135,2010.8 86.6455,1990.8" style="stroke:rgb(115,81,255);stroke-width:15.748031;fill:none;stroke-opacity:0.5;stroke-linecap:round;stroke-linejoin:round;;fill:none"/>
<polyline points="86.6455,1990.8 88.8015,1970.3 94.6155,1952.69 104.252,1935.94 116.652,1921.97 132.766,1910.18 149.788,1902.45 170.96,1898.07 190.244,1898.37 207.75,1902.17 226.614,1910.83 241.614,1921.97 254.014,1935.94 263.354,1951.93 269.626,1970.9 271.61,1989.33 269.858,2007.95 263.666,2027.76 254.776,2043.32 242.1,2057.85 224.056,2070.96 206.274,2078.53 187.348,2082.25 169.434,2082.17 149.92,2077.91 133.038,2070.3 117.204,2058.89 104.438,2044.63 94.9795,2028.51 89.0135,2010.8 86.6455,1990.8" style="stroke:rgb(0,0,0);stroke-width:1px;fill:none;stroke-opacity:1;stroke-linecap:round;stroke-linejoin:round;;fill:none"/>
<polyline points="114.248,1990.16 115.666,2003.65 119.858,2016.55 126.64,2028.29 135.716,2038.38 146.69,2046.35 159.084,2051.87 172.352,2054.69 185.916,2054.69 199.184,2051.87 211.576,2046.35 222.55,2038.38 231.626,2028.3 238.408,2016.55 242.6,2003.65 244.018,1990.16 242.6,1976.67 238.408,1963.77 231.626,1952.02 222.55,1941.94 211.576,1933.96 199.184,1928.45 185.914,1925.63 172.352,1925.63 159.082,1928.45 146.692,1933.96 135.716,1941.94 126.64,1952.02 119.858,1963.77 115.666,1976.67 114.248,1990.16" style="stroke:rgb(115,81,255);stroke-width:15.748031;fill:none;stroke-opacity:0.5;stroke-linecap:round;stroke-linejoin:round;;fill:none"/>
<polyline points="114.248,1990.16 115.666,2003.65 119.858,2016.55 126.64,2028.29 135.716,2038.38 146.69,2046.35 159.084,2051.87 172.352,2054.69 185.916,2054.69 199.184,2051.87 211.576,2046.35 222.55,2038.38 231.626,2028.3 238.408,2016.55 242.6,2003.65 244.018,1990.16 242.6,1976.67 238.408,1963.77 231.626,1952.02 222.55,1941.94 211.576,1933.96 199.184,1928.45 185.914,1925.63 172.352,1925.63 159.082,1928.45 146.692,1933.96 135.716,1941.94 126.64,1952.02 119.858,1963.77 115.666,1976.67 114.248,1990.16" style="stroke:rgb(0,0,0);stroke-width:1px;fill:none;stroke-opacity:1;stroke-linecap:round;stroke-linejoin:round;;fill:none"/>
<polyline points="1267.75,1990.78 1269.9,1970.3 1275.72,1952.69 1285.35,1935.94 1297.76,1921.97 1315.31,1909.35 1332.3,1901.99 1352.02,1898.07 1369.93,1898.15 1389.45,1902.4 1407.72,1910.83 1422.72,1921.97 1435.12,1935.94 1444.46,1951.93 1450.73,1970.9 1452.76,1990.16 1450.86,2008.58 1445.28,2026.43 1435.1,2044.52 1423.17,2057.88 1405.16,2070.96 1387.38,2078.53 1368.45,2082.25 1350.54,2082.17 1331.02,2077.91 1312.75,2069.49 1297.76,2058.34 1285.35,2044.36 1275.72,2027.81 1269.95,2010.19 1267.75,1990.78" style="stroke:rgb(74,236,41);stroke-width:15.748031;fill:none;stroke-opacity:0.5;stroke-linecap:round;stroke-linejoin:round;;fill:none"/>
<polyline points="1267.75,1990.78 1269.9,1970.3 1275.72,1952.69 1285.35,1935.94 1297.76,1921.97 1315.31,1909.35 1332.3,1901.99 1352.02,1898.07 1369.93,1898.15 1389.45,1902.4 1407.72,1910.83 1422.72,1921.97 1435.12,1935.94 1444.46,1951.93 1450.73,1970.9 1452.76,1990.16 1450.86,2008.58 1445.28,2026.43 1435.1,2044.52 1423.17,2057.88 1405.16,2070.96 1387.38,2078.53 1368.45,2082.25 1350.54,2082.17 1331.02,2077.91 1312.75,2069.49 1297.76,2058.34 1285.35,2044.36 1275.72,2027.81 1269.95,2010.19 1267.75,1990.78" style="stroke:rgb(0,0,0);stroke-width:1px;fill:none;stroke-opacity:1;stroke-linecap:round;stroke-linejoin:round;;fill:none"/>
<polyline points="1295.35,1990.16 1296.77,2003.65 1300.96,2016.55 1307.74,2028.29 1316.82,2038.38 1327.79,2046.35 1340.19,2051.87 1353.45,2054.69 1367.02,2054.69 1380.29,2051.87 1392.68,2046.35 1403.65,2038.38 1412.73,2028.3 1419.51,2016.55 1423.7,2003.65 1425.12,1990.16 1423.7,1976.67 1419.51,1963.77 1412.73,1952.02 1403.65,1941.94 1392.68,1933.96 1380.29,1928.45 1367.02,1925.63 1353.45,1925.63 1340.18,1928.45 1327.79,1933.96 1316.82,1941.94 1307.74,1952.02 1300.96,1963.77 1296.77,1976.67 1295.35,1990.16" style="stroke:rgb(74,236,41);stroke-width:15.748031;fill:none;stroke-opacity:0.5;stroke-linecap:round;stroke-linejoin:round;;fill:none"/>
<polyline points="1295.35,1990.16 1296.77,2003.65 1300.96,2016.55 1307.74,2028.29 1316.82,2038.38 1327.79,2046.35 1340.19,2051.87 1353.45,2054.69 1367.02,2054.69 1380.29,2051.87 1392.68,2046.35 1403.65,2038.38 1412.73,2028.3 1419.51,2016.55 1423.7,2003.65 1425.12,1990.16 1423.7,1976.67 1419.51,1963.77 1412.73,1952.02 1403.65,1941.94 1392.68,1933.96 1380.29,1928.45 1367.02,1925.63 1353.45,1925.63 1340.18,1928.45 1327.79,1933.96 1316.82,1941.94 1307.74,1952.02 1300.96,1963.77 1296.77,1976.67 1295.35,1990.16" style="stroke:rgb(0,0,0);stroke-width:1px;fill:none;stroke-opacity:1;stroke-linecap:round;stroke-linejoin:round;;fill:none"/>
</svg>
