<?xml version="1.0" standalone="no"?>
<!DOCTYPE svg PUBLIC "-//W3C//DTD SVG 1.1//EN"
"http://www.w3.org/Graphics/SVG/1.1/DTD/svg11.dtd">
<svg width="200.882" height="189.543" viewBox="0 0 4185.04 3948.82" version="1.1"
xmlns="http://www.w3.org/2000/svg"
xmlns:xlink="http://www.w3.org/1999/xlink">
<polyline points="369.934,2598.34 372.988,2568.54 377.274,2552.86" style="stroke:rgb(255,0,0);stroke-width:23.622047;fill:none;stroke-opacity:0.5;stroke-linecap:round;stroke-linejoin:round;;fill:none"/>
<polyline points="369.934,2598.34 372.988,2568.54 377.274,2552.86" style="stroke:rgb(0,0,0);stroke-width:1px;fill:none;stroke-opacity:1;stroke-linecap:round;stroke-linejoin:round;;fill:none"/>
<polyline points="485.363,2661.44 462.646,2667.1 432.928,2668.57 417.738,2666.91 396.242,2661.45" style="stroke:rgb(255,0,0);stroke-width:23.622047;fill:none;stroke-opacity:0.5;stroke-linecap:round;stroke-linejoin:round;;fill:none"/>
<polyline points="485.363,2661.44 462.646,2667.1 432.928,2668.57 417.738,2666.91 396.242,2661.45" style="stroke:rgb(0,0,0);stroke-width:1px;fill:none;stroke-opacity:1;stroke-linecap:round;stroke-linejoin:round;;fill:none"/>
<polyline points="377.275,2643 372.988,2627.32 369.934,2598.34" style="stroke:rgb(255,0,0);stroke-width:23.622047;fill:none;stroke-opacity:0.5;stroke-linecap:round;stroke-linejoin:round;;fill:none"/>
<polyline points="377.275,2643 372.988,2627.32 369.934,2598.34" style="stroke:rgb(0,0,0);stroke-width:1px;fill:none;stroke-opacity:1;stroke-linecap:round;stroke-linejoin:round;;fill:none"/>
<polyline points="369.934,2598.34 370.774,2582.54 373.308,2567.05 377.201,2552.96" style="stroke:rgb(255,0,0);stroke-width:23.622047;fill:none;stroke-opacity:0.5;stroke-linecap:round;stroke-linejoin:round;;fill:none"/>
<polyline points="369.934,2598.34 370.774,2582.54 373.308,2567.05 377.201,2552.96" style="stroke:rgb(0,0,0);stroke-width:1px;fill:none;stroke-opacity:1;stroke-linecap:round;stroke-linejoin:round;;fill:none"/>
<polyline points="485.895,2661.05 479.728,2663.42 462.646,2667.1 432.928,2668.57 403.746,2663.93 395.998,2661.27" style="stroke:rgb(255,0,0);stroke-width:23.622047;fill:none;stroke-opacity:0.5;stroke-linecap:round;stroke-linejoin:round;;fill:none"/>
<polyline points="485.895,2661.05 479.728,2663.42 462.646,2667.1 432.928,2668.57 403.746,2663.93 395.998,2661.27" style="stroke:rgb(0,0,0);stroke-width:1px;fill:none;stroke-opacity:1;stroke-linecap:round;stroke-linejoin:round;;fill:none"/>
<polyline points="378.427,2644.59 372.988,2627.32 369.934,2598.34" style="stroke:rgb(255,0,0);stroke-width:23.622047;fill:none;stroke-opacity:0.5;stroke-linecap:round;stroke-linejoin:round;;fill:none"/>
<polyline points="378.427,2644.59 372.988,2627.32 369.934,2598.34" style="stroke:rgb(0,0,0);stroke-width:1px;fill:none;stroke-opacity:1;stroke-linecap:round;stroke-linejoin:round;;fill:none"/>
<polyline points="1077.94,3288.39 1070.86,3294.68 1066.93,3295.67 1015.75,3295.67 1011.81,3294.68 1004.74,3288.38" style="stroke:rgb(255,0,0);stroke-width:23.622047;fill:none;stroke-opacity:0.5;stroke-linecap:round;stroke-linejoin:round;;fill:none"/>
<polyline points="1077.94,3288.39 1070.86,3294.68 1066.93,3295.67 1015.75,3295.67 1011.81,3294.68 1004.74,3288.38" style="stroke:rgb(0,0,0);stroke-width:1px;fill:none;stroke-opacity:1;stroke-linecap:round;stroke-linejoin:round;;fill:none"/>
<polyline points="1004.74,3288.6 1007.87,3291.73 1011.81,3294.68 1015.75,3295.67 1066.93,3295.67 1070.86,3294.68 1077.94,3288.49" style="stroke:rgb(255,0,0);stroke-width:23.622047;fill:none;stroke-opacity:0.5;stroke-linecap:round;stroke-linejoin:round;;fill:none"/>
<polyline points="1004.74,3288.6 1007.87,3291.73 1011.81,3294.68 1015.75,3295.67 1066.93,3295.67 1070.86,3294.68 1077.94,3288.49" style="stroke:rgb(0,0,0);stroke-width:1px;fill:none;stroke-opacity:1;stroke-linecap:round;stroke-linejoin:round;;fill:none"/>
<polyline points="1106.93,1343.45 1100.77,1356.12 1095.91,1359.31 1088.74,1362.28" style="stroke:rgb(255,0,0);stroke-width:23.622047;fill:none;stroke-opacity:0.5;stroke-linecap:round;stroke-linejoin:round;;fill:none"/>
<polyline points="1106.93,1343.45 1100.77,1356.12 1095.91,1359.31 1088.74,1362.28" style="stroke:rgb(0,0,0);stroke-width:1px;fill:none;stroke-opacity:1;stroke-linecap:round;stroke-linejoin:round;;fill:none"/>
<polyline points="1106.93,1343.76 1100.77,1356.12 1088.41,1362.28" style="stroke:rgb(255,0,0);stroke-width:23.622047;fill:none;stroke-opacity:0.5;stroke-linecap:round;stroke-linejoin:round;;fill:none"/>
<polyline points="1106.93,1343.76 1100.77,1356.12 1088.41,1362.28" style="stroke:rgb(0,0,0);stroke-width:1px;fill:none;stroke-opacity:1;stroke-linecap:round;stroke-linejoin:round;;fill:none"/>
<polyline points="1575.88,3284.59 1581.56,3282.24 1596.66,3273.08 1767.33,3103.27 1778.2,3096.42 1787.13,3093" style="stroke:rgb(255,0,0);stroke-width:23.622047;fill:none;stroke-opacity:0.5;stroke-linecap:round;stroke-linejoin:round;;fill:none"/>
<polyline points="1575.88,3284.59 1581.56,3282.24 1596.66,3273.08 1767.33,3103.27 1778.2,3096.42 1787.13,3093" style="stroke:rgb(0,0,0);stroke-width:1px;fill:none;stroke-opacity:1;stroke-linecap:round;stroke-linejoin:round;;fill:none"/>
<polyline points="2925.6,3188.35 2919,3198.97 2901.77,3219.15 2890.07,3229.13 2877.73,3237.47 2874.97,3238.93" style="stroke:rgb(255,0,0);stroke-width:23.622047;fill:none;stroke-opacity:0.5;stroke-linecap:round;stroke-linejoin:round;;fill:none"/>
<polyline points="2925.6,3188.35 2919,3198.97 2901.77,3219.15 2890.07,3229.13 2877.73,3237.47 2874.97,3238.93" style="stroke:rgb(0,0,0);stroke-width:1px;fill:none;stroke-opacity:1;stroke-linecap:round;stroke-linejoin:round;;fill:none"/>
<polyline points="1575.95,3284.52 1587.23,3279.48 1600.39,3269.68 1767.33,3103.27 1776.79,3097.13 1786.99,3092.98" style="stroke:rgb(255,0,0);stroke-width:23.622047;fill:none;stroke-opacity:0.5;stroke-linecap:round;stroke-linejoin:round;;fill:none"/>
<polyline points="1575.95,3284.52 1587.23,3279.48 1600.39,3269.68 1767.33,3103.27 1776.79,3097.13 1786.99,3092.98" style="stroke:rgb(0,0,0);stroke-width:1px;fill:none;stroke-opacity:1;stroke-linecap:round;stroke-linejoin:round;;fill:none"/>
<polyline points="2926.18,3186.55 2920,3197.51 2911.29,3209.01 2900.84,3220.03 2890.07,3229.13 2874.53,3239.03" style="stroke:rgb(255,0,0);stroke-width:23.622047;fill:none;stroke-opacity:0.5;stroke-linecap:round;stroke-linejoin:round;;fill:none"/>
<polyline points="2926.18,3186.55 2920,3197.51 2911.29,3209.01 2900.84,3220.03 2890.07,3229.13 2874.53,3239.03" style="stroke:rgb(0,0,0);stroke-width:1px;fill:none;stroke-opacity:1;stroke-linecap:round;stroke-linejoin:round;;fill:none"/>
<polyline points="358.526,1474.24 359.89,1470.95 363.714,1465.13 369.534,1461.31 372.828,1459.94" style="stroke:rgb(255,0,0);stroke-width:23.622047;fill:none;stroke-opacity:0.5;stroke-linecap:round;stroke-linejoin:round;;fill:none"/>
<polyline points="358.526,1474.24 359.89,1470.95 363.714,1465.13 369.534,1461.31 372.828,1459.94" style="stroke:rgb(0,0,0);stroke-width:1px;fill:none;stroke-opacity:1;stroke-linecap:round;stroke-linejoin:round;;fill:none"/>
<polyline points="2822.45,1216.94 2826.56,1217.86 2855.48,1219.6 2872.91,1216.94" style="stroke:rgb(255,0,0);stroke-width:23.622047;fill:none;stroke-opacity:0.5;stroke-linecap:round;stroke-linejoin:round;;fill:none"/>
<polyline points="2822.45,1216.94 2826.56,1217.86 2855.48,1219.6 2872.91,1216.94" style="stroke:rgb(0,0,0);stroke-width:1px;fill:none;stroke-opacity:1;stroke-linecap:round;stroke-linejoin:round;;fill:none"/>
<polyline points="2872.94,1286.21 2855.48,1283.55 2828.64,1284.96 2822.54,1286.21" style="stroke:rgb(255,0,0);stroke-width:23.622047;fill:none;stroke-opacity:0.5;stroke-linecap:round;stroke-linejoin:round;;fill:none"/>
<polyline points="2872.94,1286.21 2855.48,1283.55 2828.64,1284.96 2822.54,1286.21" style="stroke:rgb(0,0,0);stroke-width:1px;fill:none;stroke-opacity:1;stroke-linecap:round;stroke-linejoin:round;;fill:none"/>
<polyline points="358.526,1474.7 363.714,1465.13 373.284,1459.94" style="stroke:rgb(255,0,0);stroke-width:23.622047;fill:none;stroke-opacity:0.5;stroke-linecap:round;stroke-linejoin:round;;fill:none"/>
<polyline points="358.526,1474.7 363.714,1465.13 373.284,1459.94" style="stroke:rgb(0,0,0);stroke-width:1px;fill:none;stroke-opacity:1;stroke-linecap:round;stroke-linejoin:round;;fill:none"/>
<polyline points="2824.16,1216.94 2842.94,1219.6 2857.24,1219.51 2874.54,1216.94" style="stroke:rgb(255,0,0);stroke-width:23.622047;fill:none;stroke-opacity:0.5;stroke-linecap:round;stroke-linejoin:round;;fill:none"/>
<polyline points="2824.16,1216.94 2842.94,1219.6 2857.24,1219.51 2874.54,1216.94" style="stroke:rgb(0,0,0);stroke-width:1px;fill:none;stroke-opacity:1;stroke-linecap:round;stroke-linejoin:round;;fill:none"/>
<polyline points="2874.56,1286.21 2857.24,1283.64 2842.94,1283.55 2824.13,1286.21" style="stroke:rgb(255,0,0);stroke-width:23.622047;fill:none;stroke-opacity:0.5;stroke-linecap:round;stroke-linejoin:round;;fill:none"/>
<polyline points="2874.56,1286.21 2857.24,1283.64 2842.94,1283.55 2824.13,1286.21" style="stroke:rgb(0,0,0);stroke-width:1px;fill:none;stroke-opacity:1;stroke-linecap:round;stroke-linejoin:round;;fill:none"/>
<polyline points="2822.07,1086.29 2826.56,1085.29 2855.48,1083.55 2877.86,1086.96" style="stroke:rgb(255,0,0);stroke-width:23.622047;fill:none;stroke-opacity:0.5;stroke-linecap:round;stroke-linejoin:round;;fill:none"/>
<polyline points="2822.07,1086.29 2826.56,1085.29 2855.48,1083.55 2877.86,1086.96" style="stroke:rgb(0,0,0);stroke-width:1px;fill:none;stroke-opacity:1;stroke-linecap:round;stroke-linejoin:round;;fill:none"/>
<polyline points="2877.87,1216.19 2855.48,1219.6 2826.56,1217.86 2822.05,1216.85" style="stroke:rgb(255,0,0);stroke-width:23.622047;fill:none;stroke-opacity:0.5;stroke-linecap:round;stroke-linejoin:round;;fill:none"/>
<polyline points="2877.87,1216.19 2855.48,1219.6 2826.56,1217.86 2822.05,1216.85" style="stroke:rgb(0,0,0);stroke-width:1px;fill:none;stroke-opacity:1;stroke-linecap:round;stroke-linejoin:round;;fill:none"/>
<polyline points="2822.09,1086.28 2828.64,1084.96 2855.48,1083.55 2871.86,1085.29 2878.34,1087.17" style="stroke:rgb(255,0,0);stroke-width:23.622047;fill:none;stroke-opacity:0.5;stroke-linecap:round;stroke-linejoin:round;;fill:none"/>
<polyline points="2822.09,1086.28 2828.64,1084.96 2855.48,1083.55 2871.86,1085.29 2878.34,1087.17" style="stroke:rgb(0,0,0);stroke-width:1px;fill:none;stroke-opacity:1;stroke-linecap:round;stroke-linejoin:round;;fill:none"/>
<polyline points="2877.06,1216.55 2855.48,1219.6 2841.18,1219.51 2821.43,1216.58" style="stroke:rgb(255,0,0);stroke-width:23.622047;fill:none;stroke-opacity:0.5;stroke-linecap:round;stroke-linejoin:round;;fill:none"/>
<polyline points="2877.06,1216.55 2855.48,1219.6 2841.18,1219.51 2821.43,1216.58" style="stroke:rgb(0,0,0);stroke-width:1px;fill:none;stroke-opacity:1;stroke-linecap:round;stroke-linejoin:round;;fill:none"/>
<polyline points="1037.4,2197.84 1037.4,2239.17" style="stroke:rgb(255,0,0);stroke-width:23.622047;fill:none;stroke-opacity:0.5;stroke-linecap:round;stroke-linejoin:round;;fill:none"/>
<polyline points="1037.4,2197.84 1037.4,2239.17" style="stroke:rgb(0,0,0);stroke-width:1px;fill:none;stroke-opacity:1;stroke-linecap:round;stroke-linejoin:round;;fill:none"/>
<polyline points="377,2553.69 373.308,2567.05 370.774,2582.54 369.934,2598.34 372.988,2627.32 377,2640.06" style="stroke:rgb(255,0,0);stroke-width:23.622047;fill:none;stroke-opacity:0.5;stroke-linecap:round;stroke-linejoin:round;;fill:none"/>
<polyline points="377,2553.69 373.308,2567.05 370.774,2582.54 369.934,2598.34 372.988,2627.32 377,2640.06" style="stroke:rgb(0,0,0);stroke-width:1px;fill:none;stroke-opacity:1;stroke-linecap:round;stroke-linejoin:round;;fill:none"/>
<polyline points="397.002,2661.72 401.854,2663.42 418.936,2667.1 447.788,2668.61 463.844,2666.91 483.125,2661.72" style="stroke:rgb(255,0,0);stroke-width:23.622047;fill:none;stroke-opacity:0.5;stroke-linecap:round;stroke-linejoin:round;;fill:none"/>
<polyline points="397.002,2661.72 401.854,2663.42 418.936,2667.1 447.788,2668.61 463.844,2666.91 483.125,2661.72" style="stroke:rgb(0,0,0);stroke-width:1px;fill:none;stroke-opacity:1;stroke-linecap:round;stroke-linejoin:round;;fill:none"/>
<polyline points="1037.4,2827.76 1037.4,2869.09" style="stroke:rgb(255,0,0);stroke-width:23.622047;fill:none;stroke-opacity:0.5;stroke-linecap:round;stroke-linejoin:round;;fill:none"/>
<polyline points="1037.4,2827.76 1037.4,2869.09" style="stroke:rgb(0,0,0);stroke-width:1px;fill:none;stroke-opacity:1;stroke-linecap:round;stroke-linejoin:round;;fill:none"/>
<polyline points="480.577,2730.99 464.512,2727.45 447.788,2725.67 432.598,2725.73 417.07,2727.45 403.897,2730.99" style="stroke:rgb(255,0,0);stroke-width:23.622047;fill:none;stroke-opacity:0.5;stroke-linecap:round;stroke-linejoin:round;;fill:none"/>
<polyline points="480.577,2730.99 464.512,2727.45 447.788,2725.67 432.598,2725.73 417.07,2727.45 403.897,2730.99" style="stroke:rgb(0,0,0);stroke-width:1px;fill:none;stroke-opacity:1;stroke-linecap:round;stroke-linejoin:round;;fill:none"/>
<polyline points="1037.4,2197.84 1037.4,2239.17" style="stroke:rgb(255,0,0);stroke-width:23.622047;fill:none;stroke-opacity:0.5;stroke-linecap:round;stroke-linejoin:round;;fill:none"/>
<polyline points="1037.4,2197.84 1037.4,2239.17" style="stroke:rgb(0,0,0);stroke-width:1px;fill:none;stroke-opacity:1;stroke-linecap:round;stroke-linejoin:round;;fill:none"/>
<polyline points="377,2553.73 372.988,2568.54 369.934,2598.34 372.988,2627.32 377,2642.13" style="stroke:rgb(255,0,0);stroke-width:23.622047;fill:none;stroke-opacity:0.5;stroke-linecap:round;stroke-linejoin:round;;fill:none"/>
<polyline points="377,2553.73 372.988,2568.54 369.934,2598.34 372.988,2627.32 377,2642.13" style="stroke:rgb(0,0,0);stroke-width:1px;fill:none;stroke-opacity:1;stroke-linecap:round;stroke-linejoin:round;;fill:none"/>
<polyline points="397.317,2661.72 417.738,2666.91 433.796,2668.61 462.646,2667.1 484.206,2661.72" style="stroke:rgb(255,0,0);stroke-width:23.622047;fill:none;stroke-opacity:0.5;stroke-linecap:round;stroke-linejoin:round;;fill:none"/>
<polyline points="397.317,2661.72 417.738,2666.91 433.796,2668.61 462.646,2667.1 484.206,2661.72" style="stroke:rgb(0,0,0);stroke-width:1px;fill:none;stroke-opacity:1;stroke-linecap:round;stroke-linejoin:round;;fill:none"/>
<polyline points="1037.4,2827.76 1037.4,2869.09" style="stroke:rgb(255,0,0);stroke-width:23.622047;fill:none;stroke-opacity:0.5;stroke-linecap:round;stroke-linejoin:round;;fill:none"/>
<polyline points="1037.4,2827.76 1037.4,2869.09" style="stroke:rgb(0,0,0);stroke-width:1px;fill:none;stroke-opacity:1;stroke-linecap:round;stroke-linejoin:round;;fill:none"/>
<polyline points="479.675,2730.99 464.512,2727.45 447.788,2725.67 418.606,2727.21 401.992,2730.99" style="stroke:rgb(255,0,0);stroke-width:23.622047;fill:none;stroke-opacity:0.5;stroke-linecap:round;stroke-linejoin:round;;fill:none"/>
<polyline points="479.675,2730.99 464.512,2727.45 447.788,2725.67 418.606,2727.21 401.992,2730.99" style="stroke:rgb(0,0,0);stroke-width:1px;fill:none;stroke-opacity:1;stroke-linecap:round;stroke-linejoin:round;;fill:none"/>
<polyline points="1088.75,1362.27 1095.91,1359.31 1100.77,1356.12 1103.95,1351.26 1106.92,1344.1" style="stroke:rgb(255,0,0);stroke-width:23.622047;fill:none;stroke-opacity:0.5;stroke-linecap:round;stroke-linejoin:round;;fill:none"/>
<polyline points="1088.75,1362.27 1095.91,1359.31 1100.77,1356.12 1103.95,1351.26 1106.92,1344.1" style="stroke:rgb(0,0,0);stroke-width:1px;fill:none;stroke-opacity:1;stroke-linecap:round;stroke-linejoin:round;;fill:none"/>
<polyline points="1110.49,1020.74 1113.82,1012.27 1116.43,998.762 1114.74,971.934 1110.49,966.02" style="stroke:rgb(255,0,0);stroke-width:23.622047;fill:none;stroke-opacity:0.5;stroke-linecap:round;stroke-linejoin:round;;fill:none"/>
<polyline points="1110.49,1020.74 1113.82,1012.27 1116.43,998.762 1114.74,971.934 1110.49,966.02" style="stroke:rgb(0,0,0);stroke-width:1px;fill:none;stroke-opacity:1;stroke-linecap:round;stroke-linejoin:round;;fill:none"/>
<polyline points="1108.53,302.197 1105.95,287.038 1105.69,261.332 1105,258.298" style="stroke:rgb(255,0,0);stroke-width:23.622047;fill:none;stroke-opacity:0.5;stroke-linecap:round;stroke-linejoin:round;;fill:none"/>
<polyline points="1108.53,302.197 1105.95,287.038 1105.69,261.332 1105,258.298" style="stroke:rgb(0,0,0);stroke-width:1px;fill:none;stroke-opacity:1;stroke-linecap:round;stroke-linejoin:round;;fill:none"/>
<polyline points="372.885,1459.89 369.534,1461.31 363.714,1465.13 359.89,1470.95 358.523,1474.25" style="stroke:rgb(255,0,0);stroke-width:23.622047;fill:none;stroke-opacity:0.5;stroke-linecap:round;stroke-linejoin:round;;fill:none"/>
<polyline points="372.885,1459.89 369.534,1461.31 363.714,1465.13 359.89,1470.95 358.523,1474.25" style="stroke:rgb(0,0,0);stroke-width:1px;fill:none;stroke-opacity:1;stroke-linecap:round;stroke-linejoin:round;;fill:none"/>
<polyline points="1089.07,1361.95 1100.77,1356.12 1108.25,1342.77" style="stroke:rgb(255,0,0);stroke-width:23.622047;fill:none;stroke-opacity:0.5;stroke-linecap:round;stroke-linejoin:round;;fill:none"/>
<polyline points="1089.07,1361.95 1100.77,1356.12 1108.25,1342.77" style="stroke:rgb(0,0,0);stroke-width:1px;fill:none;stroke-opacity:1;stroke-linecap:round;stroke-linejoin:round;;fill:none"/>
<polyline points="1110.49,1020.88 1114.28,1010.72 1116.43,998.762 1115.66,974.532 1110.49,965.235" style="stroke:rgb(255,0,0);stroke-width:23.622047;fill:none;stroke-opacity:0.5;stroke-linecap:round;stroke-linejoin:round;;fill:none"/>
<polyline points="1110.49,1020.88 1114.28,1010.72 1116.43,998.762 1115.66,974.532 1110.49,965.235" style="stroke:rgb(0,0,0);stroke-width:1px;fill:none;stroke-opacity:1;stroke-linecap:round;stroke-linejoin:round;;fill:none"/>
<polyline points="1109.38,303.085 1105.95,287.038 1104.98,258.331" style="stroke:rgb(255,0,0);stroke-width:23.622047;fill:none;stroke-opacity:0.5;stroke-linecap:round;stroke-linejoin:round;;fill:none"/>
<polyline points="1109.38,303.085 1105.95,287.038 1104.98,258.331" style="stroke:rgb(0,0,0);stroke-width:1px;fill:none;stroke-opacity:1;stroke-linecap:round;stroke-linejoin:round;;fill:none"/>
<polyline points="372.299,1460.48 363.714,1465.13 359.06,1473.71" style="stroke:rgb(255,0,0);stroke-width:23.622047;fill:none;stroke-opacity:0.5;stroke-linecap:round;stroke-linejoin:round;;fill:none"/>
<polyline points="372.299,1460.48 363.714,1465.13 359.06,1473.71" style="stroke:rgb(0,0,0);stroke-width:1px;fill:none;stroke-opacity:1;stroke-linecap:round;stroke-linejoin:round;;fill:none"/>
<polyline points="1104.89,257.829 1105.69,261.332 1105.95,287.038 1108.55,302.337" style="stroke:rgb(255,0,0);stroke-width:23.622047;fill:none;stroke-opacity:0.5;stroke-linecap:round;stroke-linejoin:round;;fill:none"/>
<polyline points="1104.89,257.829 1105.69,261.332 1105.95,287.038 1108.55,302.337" style="stroke:rgb(0,0,0);stroke-width:1px;fill:none;stroke-opacity:1;stroke-linecap:round;stroke-linejoin:round;;fill:none"/>
<polyline points="1109.23,964.264 1114.74,971.934 1116.43,998.762 1113.82,1012.27 1110.26,1021.33" style="stroke:rgb(255,0,0);stroke-width:23.622047;fill:none;stroke-opacity:0.5;stroke-linecap:round;stroke-linejoin:round;;fill:none"/>
<polyline points="1109.23,964.264 1114.74,971.934 1116.43,998.762 1113.82,1012.27 1110.26,1021.33" style="stroke:rgb(0,0,0);stroke-width:1px;fill:none;stroke-opacity:1;stroke-linecap:round;stroke-linejoin:round;;fill:none"/>
<polyline points="1105.11,257.976 1105.69,261.332 1105.78,284.722 1108.58,302.287" style="stroke:rgb(255,0,0);stroke-width:23.622047;fill:none;stroke-opacity:0.5;stroke-linecap:round;stroke-linejoin:round;;fill:none"/>
<polyline points="1105.11,257.976 1105.69,261.332 1105.78,284.722 1108.58,302.287" style="stroke:rgb(0,0,0);stroke-width:1px;fill:none;stroke-opacity:1;stroke-linecap:round;stroke-linejoin:round;;fill:none"/>
<polyline points="1110.15,964.482 1113.1,968.624 1115.66,974.532 1116.43,998.762 1112.07,1017.21 1110.47,1021.12" style="stroke:rgb(255,0,0);stroke-width:23.622047;fill:none;stroke-opacity:0.5;stroke-linecap:round;stroke-linejoin:round;;fill:none"/>
<polyline points="1110.15,964.482 1113.1,968.624 1115.66,974.532 1116.43,998.762 1112.07,1017.21 1110.47,1021.12" style="stroke:rgb(0,0,0);stroke-width:1px;fill:none;stroke-opacity:1;stroke-linecap:round;stroke-linejoin:round;;fill:none"/>
<polyline points="2925.75,2787.89 2919,2798.97 2901.77,2819.15 2887.99,2830.56 2863.36,2834.24 2837.41,2832.88 2814.34,2826.79" style="stroke:rgb(255,0,0);stroke-width:23.622047;fill:none;stroke-opacity:0.5;stroke-linecap:round;stroke-linejoin:round;;fill:none"/>
<polyline points="2925.75,2787.89 2919,2798.97 2901.77,2819.15 2887.99,2830.56 2863.36,2834.24 2837.41,2832.88 2814.34,2826.79" style="stroke:rgb(0,0,0);stroke-width:1px;fill:none;stroke-opacity:1;stroke-linecap:round;stroke-linejoin:round;;fill:none"/>
<polyline points="2925.7,2788.02 2911.29,2809.01 2900.84,2820.03 2887.99,2830.56 2863.36,2834.24 2836.25,2832.7 2814.76,2827.09" style="stroke:rgb(255,0,0);stroke-width:23.622047;fill:none;stroke-opacity:0.5;stroke-linecap:round;stroke-linejoin:round;;fill:none"/>
<polyline points="2925.7,2788.02 2911.29,2809.01 2900.84,2820.03 2887.99,2830.56 2863.36,2834.24 2836.25,2832.7 2814.76,2827.09" style="stroke:rgb(0,0,0);stroke-width:1px;fill:none;stroke-opacity:1;stroke-linecap:round;stroke-linejoin:round;;fill:none"/>
<polyline points="2925.6,2988.35 2919,2998.97 2901.77,3019.15 2887.99,3030.56 2864.22,3034.2 2849.95,3034.2 2823.7,3030.03 2814.76,3027.09" style="stroke:rgb(255,0,0);stroke-width:23.622047;fill:none;stroke-opacity:0.5;stroke-linecap:round;stroke-linejoin:round;;fill:none"/>
<polyline points="2925.6,2988.35 2919,2998.97 2901.77,3019.15 2887.99,3030.56 2864.22,3034.2 2849.95,3034.2 2823.7,3030.03 2814.76,3027.09" style="stroke:rgb(0,0,0);stroke-width:1px;fill:none;stroke-opacity:1;stroke-linecap:round;stroke-linejoin:round;;fill:none"/>
<polyline points="2925.82,2987.67 2910.41,3010.05 2890.07,3029.13 2877.92,3032.7 2863.36,3034.24 2837.41,3032.88 2814.74,3027.07" style="stroke:rgb(255,0,0);stroke-width:23.622047;fill:none;stroke-opacity:0.5;stroke-linecap:round;stroke-linejoin:round;;fill:none"/>
<polyline points="2925.82,2987.67 2910.41,3010.05 2890.07,3029.13 2877.92,3032.7 2863.36,3034.24 2837.41,3032.88 2814.74,3027.07" style="stroke:rgb(0,0,0);stroke-width:1px;fill:none;stroke-opacity:1;stroke-linecap:round;stroke-linejoin:round;;fill:none"/>
<polyline points="400.946,2731 417.07,2727.45 432.598,2725.73 447.788,2725.67 462.976,2727.21 478.504,2730.42 480.967,2731.23" style="stroke:rgb(255,0,0);stroke-width:23.622047;fill:none;stroke-opacity:0.5;stroke-linecap:round;stroke-linejoin:round;;fill:none"/>
<polyline points="400.946,2731 417.07,2727.45 432.598,2725.73 447.788,2725.67 462.976,2727.21 478.504,2730.42 480.967,2731.23" style="stroke:rgb(0,0,0);stroke-width:1px;fill:none;stroke-opacity:1;stroke-linecap:round;stroke-linejoin:round;;fill:none"/>
<polyline points="1004.98,3288.6 1011.81,3294.68 1015.75,3295.67 1066.93,3295.67 1070.86,3294.68 1077.71,3288.6" style="stroke:rgb(255,0,0);stroke-width:23.622047;fill:none;stroke-opacity:0.5;stroke-linecap:round;stroke-linejoin:round;;fill:none"/>
<polyline points="1004.98,3288.6 1011.81,3294.68 1015.75,3295.67 1066.93,3295.67 1070.86,3294.68 1077.71,3288.6" style="stroke:rgb(0,0,0);stroke-width:1px;fill:none;stroke-opacity:1;stroke-linecap:round;stroke-linejoin:round;;fill:none"/>
<polyline points="1037.4,2869.09 1037.4,2827.76" style="stroke:rgb(255,0,0);stroke-width:23.622047;fill:none;stroke-opacity:0.5;stroke-linecap:round;stroke-linejoin:round;;fill:none"/>
<polyline points="1037.4,2869.09 1037.4,2827.76" style="stroke:rgb(0,0,0);stroke-width:1px;fill:none;stroke-opacity:1;stroke-linecap:round;stroke-linejoin:round;;fill:none"/>
<polyline points="1037.4,2239.16 1037.4,2197.84" style="stroke:rgb(255,0,0);stroke-width:23.622047;fill:none;stroke-opacity:0.5;stroke-linecap:round;stroke-linejoin:round;;fill:none"/>
<polyline points="1037.4,2239.16 1037.4,2197.84" style="stroke:rgb(0,0,0);stroke-width:1px;fill:none;stroke-opacity:1;stroke-linecap:round;stroke-linejoin:round;;fill:none"/>
<polyline points="400.946,2731 417.07,2727.45 432.598,2725.73 448.984,2725.73 464.512,2727.45 481.082,2731.32" style="stroke:rgb(255,0,0);stroke-width:23.622047;fill:none;stroke-opacity:0.5;stroke-linecap:round;stroke-linejoin:round;;fill:none"/>
<polyline points="400.946,2731 417.07,2727.45 432.598,2725.73 448.984,2725.73 464.512,2727.45 481.082,2731.32" style="stroke:rgb(0,0,0);stroke-width:1px;fill:none;stroke-opacity:1;stroke-linecap:round;stroke-linejoin:round;;fill:none"/>
<polyline points="1004.85,3288.6 1011.81,3294.68 1015.75,3295.67 1066.93,3295.67 1070.86,3294.68 1077.82,3288.6" style="stroke:rgb(255,0,0);stroke-width:23.622047;fill:none;stroke-opacity:0.5;stroke-linecap:round;stroke-linejoin:round;;fill:none"/>
<polyline points="1004.85,3288.6 1011.81,3294.68 1015.75,3295.67 1066.93,3295.67 1070.86,3294.68 1077.82,3288.6" style="stroke:rgb(0,0,0);stroke-width:1px;fill:none;stroke-opacity:1;stroke-linecap:round;stroke-linejoin:round;;fill:none"/>
<polyline points="1037.4,2869.09 1037.4,2827.76" style="stroke:rgb(255,0,0);stroke-width:23.622047;fill:none;stroke-opacity:0.5;stroke-linecap:round;stroke-linejoin:round;;fill:none"/>
<polyline points="1037.4,2869.09 1037.4,2827.76" style="stroke:rgb(0,0,0);stroke-width:1px;fill:none;stroke-opacity:1;stroke-linecap:round;stroke-linejoin:round;;fill:none"/>
<polyline points="1037.4,2239.16 1037.4,2197.84" style="stroke:rgb(255,0,0);stroke-width:23.622047;fill:none;stroke-opacity:0.5;stroke-linecap:round;stroke-linejoin:round;;fill:none"/>
<polyline points="1037.4,2239.16 1037.4,2197.84" style="stroke:rgb(0,0,0);stroke-width:1px;fill:none;stroke-opacity:1;stroke-linecap:round;stroke-linejoin:round;;fill:none"/>
<polyline points="2815.33,3027.34 2821.91,3029.55 2836.25,3032.7 2850.81,3034.24 2864.22,3034.2 2887.99,3030.56 2901.77,3019.15 2919,2998.97 2925.19,2988.81" style="stroke:rgb(255,0,0);stroke-width:23.622047;fill:none;stroke-opacity:0.5;stroke-linecap:round;stroke-linejoin:round;;fill:none"/>
<polyline points="2815.33,3027.34 2821.91,3029.55 2836.25,3032.7 2850.81,3034.24 2864.22,3034.2 2887.99,3030.56 2901.77,3019.15 2919,2998.97 2925.19,2988.81" style="stroke:rgb(0,0,0);stroke-width:1px;fill:none;stroke-opacity:1;stroke-linecap:round;stroke-linejoin:round;;fill:none"/>
<polyline points="1786.19,3093.5 1783.03,3094.27 1772.36,3099.69 1762.92,3107.17 1596.66,3273.08 1581.56,3282.24 1575.78,3284.63" style="stroke:rgb(255,0,0);stroke-width:23.622047;fill:none;stroke-opacity:0.5;stroke-linecap:round;stroke-linejoin:round;;fill:none"/>
<polyline points="1786.19,3093.5 1783.03,3094.27 1772.36,3099.69 1762.92,3107.17 1596.66,3273.08 1581.56,3282.24 1575.78,3284.63" style="stroke:rgb(0,0,0);stroke-width:1px;fill:none;stroke-opacity:1;stroke-linecap:round;stroke-linejoin:round;;fill:none"/>
<polyline points="2815.71,3027.34 2836.25,3032.7 2849.95,3034.2 2876.76,3032.88 2887.99,3030.56 2901.77,3019.15 2919,2998.97 2925.38,2988.61" style="stroke:rgb(255,0,0);stroke-width:23.622047;fill:none;stroke-opacity:0.5;stroke-linecap:round;stroke-linejoin:round;;fill:none"/>
<polyline points="2815.71,3027.34 2836.25,3032.7 2849.95,3034.2 2876.76,3032.88 2887.99,3030.56 2901.77,3019.15 2919,2998.97 2925.38,2988.61" style="stroke:rgb(0,0,0);stroke-width:1px;fill:none;stroke-opacity:1;stroke-linecap:round;stroke-linejoin:round;;fill:none"/>
<polyline points="1786.36,3093.33 1772.36,3099.69 1762.6,3107.48 1600.09,3269.97 1587.23,3279.48 1575.69,3284.63" style="stroke:rgb(255,0,0);stroke-width:23.622047;fill:none;stroke-opacity:0.5;stroke-linecap:round;stroke-linejoin:round;;fill:none"/>
<polyline points="1786.36,3093.33 1772.36,3099.69 1762.6,3107.48 1600.09,3269.97 1587.23,3279.48 1575.69,3284.63" style="stroke:rgb(0,0,0);stroke-width:1px;fill:none;stroke-opacity:1;stroke-linecap:round;stroke-linejoin:round;;fill:none"/>
<polyline points="2876.87,3237.12 2891.28,3228.2 2910.41,3210.05 2919,3198.97 2925.19,3188.81" style="stroke:rgb(255,0,0);stroke-width:23.622047;fill:none;stroke-opacity:0.5;stroke-linecap:round;stroke-linejoin:round;;fill:none"/>
<polyline points="2876.87,3237.12 2891.28,3228.2 2910.41,3210.05 2919,3198.97 2925.19,3188.81" style="stroke:rgb(0,0,0);stroke-width:1px;fill:none;stroke-opacity:1;stroke-linecap:round;stroke-linejoin:round;;fill:none"/>
<polyline points="2925.38,3188.61 2919,3198.97 2901.77,3219.15 2890.07,3229.13 2875.74,3238.26" style="stroke:rgb(255,0,0);stroke-width:23.622047;fill:none;stroke-opacity:0.5;stroke-linecap:round;stroke-linejoin:round;;fill:none"/>
<polyline points="2925.38,3188.61 2919,3198.97 2901.77,3219.15 2890.07,3229.13 2875.74,3238.26" style="stroke:rgb(0,0,0);stroke-width:1px;fill:none;stroke-opacity:1;stroke-linecap:round;stroke-linejoin:round;;fill:none"/>
<polyline points="2816.3,2827.34 2836.25,2832.7 2850.81,2834.24 2877.92,2832.7 2887.99,2830.56 2900.84,2820.03 2911.29,2809.01 2925.11,2788.88" style="stroke:rgb(255,0,0);stroke-width:23.622047;fill:none;stroke-opacity:0.5;stroke-linecap:round;stroke-linejoin:round;;fill:none"/>
<polyline points="2816.3,2827.34 2836.25,2832.7 2850.81,2834.24 2877.92,2832.7 2887.99,2830.56 2900.84,2820.03 2911.29,2809.01 2925.11,2788.88" style="stroke:rgb(0,0,0);stroke-width:1px;fill:none;stroke-opacity:1;stroke-linecap:round;stroke-linejoin:round;;fill:none"/>
<polyline points="2815.71,2827.34 2836.25,2832.7 2849.95,2834.2 2877.92,2832.7 2887.99,2830.56 2901.77,2819.15 2919,2798.97 2925.38,2788.61" style="stroke:rgb(255,0,0);stroke-width:23.622047;fill:none;stroke-opacity:0.5;stroke-linecap:round;stroke-linejoin:round;;fill:none"/>
<polyline points="2815.71,2827.34 2836.25,2832.7 2849.95,2834.2 2877.92,2832.7 2887.99,2830.56 2901.77,2819.15 2919,2798.97 2925.38,2788.61" style="stroke:rgb(0,0,0);stroke-width:1px;fill:none;stroke-opacity:1;stroke-linecap:round;stroke-linejoin:round;;fill:none"/>
<polyline points="2822.56,1016.94 2828.64,1018.19 2855.48,1019.6 2872.91,1016.94" style="stroke:rgb(255,0,0);stroke-width:23.622047;fill:none;stroke-opacity:0.5;stroke-linecap:round;stroke-linejoin:round;;fill:none"/>
<polyline points="2822.56,1016.94 2828.64,1018.19 2855.48,1019.6 2872.91,1016.94" style="stroke:rgb(0,0,0);stroke-width:1px;fill:none;stroke-opacity:1;stroke-linecap:round;stroke-linejoin:round;;fill:none"/>
<polyline points="2872.94,1086.21 2855.48,1083.55 2828.64,1084.96 2822.54,1086.21" style="stroke:rgb(255,0,0);stroke-width:23.622047;fill:none;stroke-opacity:0.5;stroke-linecap:round;stroke-linejoin:round;;fill:none"/>
<polyline points="2872.94,1086.21 2855.48,1083.55 2828.64,1084.96 2822.54,1086.21" style="stroke:rgb(0,0,0);stroke-width:1px;fill:none;stroke-opacity:1;stroke-linecap:round;stroke-linejoin:round;;fill:none"/>
<polyline points="2823.89,1016.94 2841.18,1019.51 2855.48,1019.6 2874.26,1016.94" style="stroke:rgb(255,0,0);stroke-width:23.622047;fill:none;stroke-opacity:0.5;stroke-linecap:round;stroke-linejoin:round;;fill:none"/>
<polyline points="2823.89,1016.94 2841.18,1019.51 2855.48,1019.6 2874.26,1016.94" style="stroke:rgb(0,0,0);stroke-width:1px;fill:none;stroke-opacity:1;stroke-linecap:round;stroke-linejoin:round;;fill:none"/>
<polyline points="2874.29,1086.21 2855.48,1083.55 2841.18,1083.64 2823.87,1086.21" style="stroke:rgb(255,0,0);stroke-width:23.622047;fill:none;stroke-opacity:0.5;stroke-linecap:round;stroke-linejoin:round;;fill:none"/>
<polyline points="2874.29,1086.21 2855.48,1083.55 2841.18,1083.64 2823.87,1086.21" style="stroke:rgb(0,0,0);stroke-width:1px;fill:none;stroke-opacity:1;stroke-linecap:round;stroke-linejoin:round;;fill:none"/>
<polyline points="2821.71,1286.45 2828.64,1284.96 2857.24,1283.64 2877.71,1286.89" style="stroke:rgb(255,0,0);stroke-width:23.622047;fill:none;stroke-opacity:0.5;stroke-linecap:round;stroke-linejoin:round;;fill:none"/>
<polyline points="2821.71,1286.45 2828.64,1284.96 2857.24,1283.64 2877.71,1286.89" style="stroke:rgb(0,0,0);stroke-width:1px;fill:none;stroke-opacity:1;stroke-linecap:round;stroke-linejoin:round;;fill:none"/>
<polyline points="2819.22,1287.56 2826.56,1285.29 2842.94,1283.55 2857.24,1283.64 2876.99,1286.57" style="stroke:rgb(255,0,0);stroke-width:23.622047;fill:none;stroke-opacity:0.5;stroke-linecap:round;stroke-linejoin:round;;fill:none"/>
<polyline points="2819.22,1287.56 2826.56,1285.29 2842.94,1283.55 2857.24,1283.64 2876.99,1286.57" style="stroke:rgb(0,0,0);stroke-width:1px;fill:none;stroke-opacity:1;stroke-linecap:round;stroke-linejoin:round;;fill:none"/>
<polyline points="2877.72,1016.25 2857.24,1019.51 2828.64,1018.19 2821.69,1016.69" style="stroke:rgb(255,0,0);stroke-width:23.622047;fill:none;stroke-opacity:0.5;stroke-linecap:round;stroke-linejoin:round;;fill:none"/>
<polyline points="2877.72,1016.25 2857.24,1019.51 2828.64,1018.19 2821.69,1016.69" style="stroke:rgb(0,0,0);stroke-width:1px;fill:none;stroke-opacity:1;stroke-linecap:round;stroke-linejoin:round;;fill:none"/>
<polyline points="2877.06,1016.55 2855.48,1019.6 2841.18,1019.51 2821.43,1016.58" style="stroke:rgb(255,0,0);stroke-width:23.622047;fill:none;stroke-opacity:0.5;stroke-linecap:round;stroke-linejoin:round;;fill:none"/>
<polyline points="2877.06,1016.55 2855.48,1019.6 2841.18,1019.51 2821.43,1016.58" style="stroke:rgb(0,0,0);stroke-width:1px;fill:none;stroke-opacity:1;stroke-linecap:round;stroke-linejoin:round;;fill:none"/>
</svg>
