M48
;DRILL file {KiCad 5.0.2-bee76a0~70~ubuntu18.04.1} date Mo 19 Aug 2019 22:40:10 CEST
;FORMAT={-:-/ absolute / inch / decimal}
FMAT,2
INCH,TZ
T1C0.0300
T2C0.0394
%
G90
G05
T1
X1.3469Y-0.3587
X1.3469Y-0.4587
X1.3469Y-0.5587
X1.4469Y-0.3087
X1.4469Y-0.4087
X1.4469Y-0.5087
X1.8169Y-0.1638
X1.8169Y-0.7039
T2
X0.1387Y-0.6448
X0.1387Y-0.7448
X0.8701Y-0.137
X0.8701Y-0.237
X0.8701Y-0.337
X0.8701Y-0.437
X0.8701Y-0.537
X0.8701Y-0.637
X0.8701Y-0.737
X0.1387Y-0.1724
X0.1387Y-0.2724
X0.1387Y-0.3724
X0.1387Y-0.4724
T0
M30
