<?xml version="1.0" standalone="no"?>
<!DOCTYPE svg PUBLIC "-//W3C//DTD SVG 1.1//EN"
"http://www.w3.org/Graphics/SVG/1.1/DTD/svg11.dtd">
<svg width="200.882" height="98.8346" viewBox="0 0 4185.04 2059.06" version="1.1"
xmlns="http://www.w3.org/2000/svg"
xmlns:xlink="http://www.w3.org/1999/xlink">
<circle cx="2857.19" cy="880.786" r="30" style=""/>
<circle cx="2857.19" cy="1080.79" r="30" style=""/>
<circle cx="2857.19" cy="1280.79" r="30" style=""/>
<circle cx="3057.19" cy="1180.79" r="30" style=""/>
<circle cx="3057.19" cy="980.786" r="30" style=""/>
<circle cx="3057.19" cy="780.786" r="30" style=""/>
<circle cx="3797.19" cy="490.986" r="30" style=""/>
<circle cx="3797.19" cy="1571.19" r="30" style=""/>
<circle cx="440.786" cy="508.186" r="39.4" style=""/>
<circle cx="440.786" cy="708.186" r="39.4" style=""/>
<circle cx="440.786" cy="908.186" r="39.4" style=""/>
<circle cx="440.786" cy="1108.19" r="39.4" style=""/>
<circle cx="440.786" cy="1452.99" r="39.4" style=""/>
<circle cx="440.786" cy="1652.99" r="39.4" style=""/>
<circle cx="1903.59" cy="437.386" r="39.4" style=""/>
<circle cx="1903.59" cy="637.386" r="39.4" style=""/>
<circle cx="1903.59" cy="837.386" r="39.4" style=""/>
<circle cx="1903.59" cy="1037.39" r="39.4" style=""/>
<circle cx="1903.59" cy="1237.39" r="39.4" style=""/>
<circle cx="1903.59" cy="1437.39" r="39.4" style=""/>
<circle cx="1903.59" cy="1637.39" r="39.4" style=""/>
</svg>
