<?xml version="1.0" standalone="no"?>
<!DOCTYPE svg PUBLIC "-//W3C//DTD SVG 1.1//EN"
"http://www.w3.org/Graphics/SVG/1.1/DTD/svg11.dtd">
<svg width="200.882" height="98.8346" viewBox="0 0 4185.04 2059.06" version="1.1"
xmlns="http://www.w3.org/2000/svg"
xmlns:xlink="http://www.w3.org/1999/xlink">
<g fill-rule="evenodd"><path d="M 3685.04,631.102 L 3682.24,657.705 L 3673.98,683.145 L 3660.6,706.311 L 3642.7,726.19 L 3621.06,741.913 L 3596.63,752.793 L 3570.46,758.354 L 3543.71,758.354 L 3517.55,752.793 L 3493.11,741.913 L 3471.47,726.19 L 3453.57,706.311 L 3440.2,683.145 L 3431.93,657.705 L 3429.13,631.102 L 3431.93,604.499 L 3440.2,579.059 L 3453.57,555.894 L 3471.47,536.015 L 3493.11,520.292 L 3517.55,509.412 L 3543.71,503.851 L 3570.46,503.851 L 3596.63,509.412 L 3621.06,520.292 L 3642.7,536.015 L 3660.6,555.894 L 3673.98,579.059 L 3682.24,604.499 L 3685.04,631.102 z " style="fill-opacity:1.000000;fill:rgb(103,198,105);stroke:rgb(0,0,0);stroke-width:2"/></g>
<g fill-rule="evenodd"><path d="M 3685.04,1431.1 L 3682.24,1457.71 L 3673.98,1483.15 L 3660.6,1506.31 L 3642.7,1526.19 L 3621.06,1541.91 L 3596.63,1552.79 L 3570.46,1558.35 L 3543.71,1558.35 L 3517.55,1552.79 L 3493.11,1541.91 L 3471.47,1526.19 L 3453.57,1506.31 L 3440.2,1483.15 L 3431.93,1457.71 L 3429.13,1431.1 L 3431.93,1404.5 L 3440.2,1379.06 L 3453.57,1355.89 L 3471.47,1336.01 L 3493.11,1320.29 L 3517.55,1309.41 L 3543.71,1303.85 L 3570.46,1303.85 L 3596.63,1309.41 L 3621.06,1320.29 L 3642.7,1336.01 L 3660.6,1355.89 L 3673.98,1379.06 L 3682.24,1404.5 L 3685.04,1431.1 z " style="fill-opacity:1.000000;fill:rgb(115,81,255);stroke:rgb(0,0,0);stroke-width:2"/></g>
<g fill-rule="evenodd"><path d="M 1015.75,731.79 L 503.105,731.79 L 501.935,735.39 L 494.939,747.508 L 485.577,757.906 L 474.257,766.13 L 461.475,771.821 L 447.789,774.73 L 433.797,774.73 L 420.11,771.821 L 407.328,766.13 L 396.008,757.906 L 386.646,747.508 L 379.65,735.39 L 375.326,722.083 L 373.863,708.168 L 375.326,694.252 L 379.65,680.945 L 386.646,668.828 L 396.008,658.43 L 407.328,650.205 L 420.11,644.514 L 433.797,641.605 L 447.789,641.605 L 461.475,644.514 L 474.257,650.205 L 485.577,658.43 L 494.939,668.828 L 501.935,680.945 L 503.105,684.546 L 1019.19,684.546 L 1024.1,685.062 L 1028.8,686.588 L 1032.25,688.583 L 1066.93,688.583 L 1066.93,772.047 L 1015.75,772.047 L 1015.75,731.79 z " style="fill-opacity:1.000000;fill:rgb(74,236,41);stroke:rgb(0,0,0);stroke-width:2"/></g>
<g fill-rule="evenodd"><path d="M 1015.75,1336.61 L 1015.75,1318.5 L 1066.93,1318.5 L 1066.93,1401.97 L 1015.75,1401.97 L 1015.75,1383.86 L 887.795,1383.86 L 883.187,1383.4 L 878.756,1382.06 L 874.672,1379.88 L 871.092,1376.94 L 625.942,1131.79 L 503.105,1131.79 L 501.935,1135.39 L 494.939,1147.51 L 485.577,1157.91 L 474.257,1166.13 L 461.475,1171.82 L 447.789,1174.73 L 433.797,1174.73 L 420.11,1171.82 L 407.328,1166.13 L 396.008,1157.91 L 386.646,1147.51 L 379.65,1135.39 L 375.326,1122.08 L 373.863,1108.17 L 375.326,1094.25 L 379.65,1080.95 L 386.646,1068.83 L 396.008,1058.43 L 407.328,1050.21 L 420.11,1044.51 L 433.797,1041.61 L 447.789,1041.61 L 461.475,1044.51 L 474.257,1050.21 L 485.577,1058.43 L 494.939,1068.83 L 501.935,1080.95 L 503.105,1084.55 L 635.727,1084.55 L 640.335,1085 L 644.766,1086.34 L 648.85,1088.53 L 652.43,1091.46 L 897.58,1336.61 L 1015.75,1336.61 z " style="fill-opacity:1.000000;fill:rgb(205,186,171);stroke:rgb(0,0,0);stroke-width:2"/></g>
<g fill-rule="evenodd"><path d="M 2802.02,1304.33 L 1946.85,1304.33 L 1941.94,1303.81 L 1937.24,1302.29 L 1932.97,1299.82 L 1930.99,1298.04 L 1924.23,1301.05 L 1910.54,1303.96 L 1896.55,1303.96 L 1882.86,1301.05 L 1870.08,1295.36 L 1858.76,1287.14 L 1849.4,1276.74 L 1842.4,1264.62 L 1838.67,1253.15 L 1799.76,1253.15 L 1526.55,1526.55 L 1522.97,1529.48 L 1518.88,1531.67 L 1514.45,1533.01 L 1509.84,1533.46 L 643.701,1533.46 L 639.092,1533.01 L 634.661,1531.67 L 630.577,1529.48 L 626.997,1526.55 L 577.123,1476.67 L 507.722,1476.67 L 507.722,1519.98 L 373.863,1519.98 L 373.863,1386.12 L 507.722,1386.12 L 507.722,1429.43 L 586.908,1429.43 L 591.516,1429.88 L 595.948,1431.23 L 600.032,1433.41 L 603.611,1436.35 L 653.485,1486.22 L 1500.06,1486.22 L 1765.58,1220.7 L 1769.42,1217.59 L 1773.82,1215.35 L 1778.59,1214.07 L 1783.52,1213.81 L 1788.4,1214.58 L 1793.01,1216.35 L 1797.15,1219.04 L 1799.76,1221.65 L 1838.67,1221.65 L 1842.4,1210.18 L 1849.4,1198.06 L 1858.76,1187.66 L 1870.08,1179.44 L 1882.86,1173.75 L 1896.55,1170.84 L 1910.54,1170.84 L 1924.23,1173.75 L 1937.01,1179.44 L 1948.33,1187.66 L 1957.69,1198.06 L 1964.69,1210.18 L 1969.01,1223.49 L 1970.47,1237.4 L 1969.01,1251.32 L 1967.14,1257.09 L 2802.02,1257.09 L 2808.55,1245.44 L 2816.94,1236.12 L 2827.09,1228.75 L 2838.55,1223.65 L 2850.81,1221.04 L 2863.36,1221.04 L 2875.63,1223.65 L 2887.09,1228.75 L 2897.23,1236.12 L 2905.63,1245.44 L 2911.9,1256.3 L 2915.78,1268.23 L 2917.09,1280.71 L 2915.78,1293.18 L 2911.9,1305.11 L 2905.63,1315.98 L 2897.23,1325.3 L 2887.09,1332.67 L 2875.63,1337.77 L 2863.36,1340.38 L 2850.81,1340.38 L 2838.55,1337.77 L 2827.09,1332.67 L 2816.94,1325.3 L 2808.55,1315.98 L 2802.02,1304.33 z " style="fill-opacity:1.000000;fill:rgb(242,251,227);stroke:rgb(0,0,0);stroke-width:2"/></g>
<g fill-rule="evenodd"><path d="M 1030.71,317.844 L 1032.47,319.554 L 1033.44,322.256 L 1033.35,335.798 L 1032.47,337.927 L 1030.71,339.636 L 1027.4,344.546 L 1023.73,347.851 L 1019.45,350.32 L 1014.75,351.846 L 1009.84,352.362 L 982.284,352.362 L 982.284,448.483 L 1049.15,515.354 L 1066.93,515.354 L 1066.93,598.819 L 1015.75,598.819 L 1015.75,553.767 L 981.284,519.303 L 979.212,516.745 L 977.718,513.811 L 976.824,509.837 L 958.661,491.674 L 925.465,524.871 L 921.885,527.809 L 917.801,529.992 L 913.37,531.336 L 908.761,531.79 L 507.722,531.789 L 507.722,575.097 L 373.863,575.097 L 373.863,531.789 L 365.989,531.79 L 365.989,773.527 L 375.432,782.971 L 727.853,782.971 L 732.461,783.425 L 736.893,784.769 L 740.976,786.952 L 744.556,789.89 L 889.706,935.039 L 1009.84,935.039 L 1014.75,935.556 L 1019.45,937.082 L 1023.73,939.551 L 1027.4,942.855 L 1030.71,947.766 L 1032.12,949.01 L 1033.02,950.496 L 1033.46,952.756 L 1033.44,965.146 L 1032.47,967.848 L 1030.71,969.557 L 1027.4,974.468 L 1023.73,977.772 L 1019.45,980.241 L 1014.75,981.767 L 1009.84,982.283 L 903.543,982.283 L 903.543,1072.89 L 994.037,1163.39 L 1015.75,1163.39 L 1015.75,1145.28 L 1066.93,1145.28 L 1066.93,1228.74 L 1015.75,1228.74 L 1015.75,1210.63 L 984.252,1210.63 L 979.644,1210.18 L 975.212,1208.83 L 971.128,1206.65 L 967.549,1203.71 L 863.218,1099.38 L 860.28,1095.8 L 858.097,1091.72 L 856.753,1087.29 L 856.299,1082.68 L 856.299,968.446 L 718.068,830.215 L 365.648,830.215 L 361.04,829.761 L 356.608,828.417 L 352.524,826.234 L 348.945,823.296 L 325.664,800.016 L 322.726,796.436 L 320.543,792.352 L 319.199,787.921 L 318.745,783.312 L 318.745,508.168 L 319.199,503.559 L 320.543,499.128 L 322.726,495.044 L 325.664,491.464 L 329.244,488.527 L 333.328,486.344 L 337.759,484.999 L 342.367,484.546 L 373.863,484.546 L 373.863,441.239 L 507.722,441.239 L 507.722,484.546 L 898.977,484.546 L 935.039,448.483 L 935.039,328.74 L 935.493,324.132 L 936.837,319.7 L 939.02,315.616 L 941.958,312.037 L 945.538,309.099 L 949.622,306.916 L 954.053,305.572 L 958.661,305.118 L 1009.84,305.118 L 1014.75,305.634 L 1019.45,307.16 L 1023.73,309.63 L 1027.4,312.934 L 1030.71,317.844 z " style="fill-opacity:1.000000;fill:rgb(70,124,194);stroke:rgb(0,0,0);stroke-width:2"/></g>
<g fill-rule="evenodd"><path d="M 1044.1,339.636 L 1042.33,337.927 L 1041.37,335.224 L 1041.37,322.256 L 1042.33,319.554 L 1044.1,317.844 L 1047.41,312.934 L 1051.08,309.63 L 1055.35,307.16 L 1060.05,305.634 L 1064.96,305.118 L 1194.88,305.118 L 1199.49,305.572 L 1203.92,306.916 L 1208.01,309.099 L 1211.59,312.037 L 1214.52,315.616 L 1216.71,319.7 L 1218.05,324.132 L 1218.5,328.74 L 1218.5,405.118 L 1218.05,409.727 L 1216.71,414.158 L 1214.52,418.242 L 1211.59,421.821 L 1139.76,493.643 L 1139.76,515.354 L 1141.73,515.354 L 1141.73,598.819 L 1139.76,598.819 L 1139.76,856.299 L 1139.25,861.211 L 1137.72,865.907 L 1136.92,867.294 L 1211.59,941.958 L 1214.52,945.538 L 1216.71,949.622 L 1218.05,954.053 L 1218.5,958.661 L 1218.5,1035.04 L 1218.05,1039.65 L 1216.71,1044.08 L 1214.52,1048.16 L 1211.59,1051.74 L 1139.76,1123.56 L 1139.76,1145.28 L 1141.73,1145.28 L 1141.73,1228.74 L 1139.76,1228.74 L 1139.76,1415.35 L 1139.31,1419.96 L 1137.97,1424.39 L 1135.78,1428.48 L 1132.85,1432.06 L 1114.73,1450.17 L 1111.16,1453.11 L 1107.07,1455.29 L 1102.64,1456.63 L 1098.03,1457.09 L 732.677,1457.09 L 728.069,1456.63 L 723.637,1455.29 L 719.554,1453.11 L 715.974,1450.17 L 555.176,1289.37 L 297.244,1289.37 L 297.244,1746.06 L 1663.05,1746.06 L 1788.41,1620.7 L 1792.25,1617.59 L 1796.65,1615.35 L 1801.42,1614.07 L 1806.35,1613.81 L 1811.23,1614.58 L 1815.84,1616.35 L 1819.98,1619.04 L 1822.59,1621.65 L 1836.61,1621.65 L 1836.61,1570.47 L 1970.47,1570.47 L 1970.47,1613.78 L 3721.32,1613.78 L 3740.27,1594.83 L 3736.78,1584.11 L 3735.43,1571.26 L 3736.78,1558.41 L 3740.78,1546.12 L 3747.24,1534.93 L 3755.88,1525.33 L 3766.34,1517.73 L 3773.62,1514.49 L 3773.62,578.359 L 3774.14,573.448 L 3775.66,568.751 L 3778.13,564.474 L 3781.5,560.762 L 3781.5,550.443 L 3778.14,549.731 L 3766.34,544.475 L 3755.88,536.879 L 3747.24,527.276 L 3740.78,516.086 L 3736.78,503.796 L 3735.43,490.945 L 3736.78,478.094 L 3740.78,465.804 L 3747.24,454.613 L 3755.88,445.01 L 3766.34,437.415 L 3778.14,432.159 L 3790.78,429.472 L 3803.71,429.472 L 3816.34,432.159 L 3828.15,437.415 L 3838.6,445.01 L 3847.25,454.613 L 3853.71,465.804 L 3857.7,478.094 L 3859.06,490.945 L 3857.7,503.796 L 3853.71,516.086 L 3847.25,527.276 L 3838.6,536.879 L 3828.15,544.475 L 3816.34,549.731 L 3812.99,550.443 L 3812.99,560.762 L 3816.35,564.474 L 3818.82,568.751 L 3820.35,573.448 L 3820.87,578.359 L 3820.87,1514.49 L 3828.15,1517.73 L 3838.6,1525.33 L 3847.25,1534.93 L 3853.71,1546.12 L 3857.7,1558.41 L 3859.06,1571.26 L 3857.7,1584.11 L 3853.71,1596.4 L 3847.25,1607.59 L 3838.6,1617.19 L 3828.15,1624.79 L 3816.34,1630.05 L 3803.71,1632.73 L 3790.78,1632.73 L 3778.14,1630.05 L 3773.8,1628.11 L 3747.81,1654.1 L 3744.23,1657.04 L 3740.14,1659.23 L 3735.71,1660.57 L 3731.1,1661.02 L 1970.47,1661.02 L 1970.47,1704.33 L 1836.61,1704.33 L 1836.61,1653.15 L 1822.59,1653.15 L 1689.54,1786.39 L 1685.96,1789.33 L 1681.87,1791.51 L 1677.44,1792.85 L 1672.83,1793.31 L 291.055,1793.31 L 289.428,1795.11 L 285.433,1798.02 L 280.922,1800.02 L 276.091,1801.05 L 271.153,1801.05 L 266.322,1800.02 L 261.811,1798.02 L 257.816,1795.11 L 254.511,1791.44 L 252.042,1787.17 L 250.516,1782.47 L 250,1777.56 L 250,980.686 L 250.454,976.078 L 251.798,971.646 L 253.981,967.562 L 256.919,963.983 L 329.437,891.464 L 333.017,888.527 L 337.101,886.344 L 341.532,884.999 L 346.141,884.546 L 378.48,884.546 L 379.65,880.945 L 386.646,868.828 L 396.008,858.43 L 407.328,850.205 L 420.11,844.514 L 433.797,841.605 L 447.789,841.605 L 461.475,844.514 L 474.257,850.205 L 485.577,858.43 L 494.939,868.828 L 501.935,880.945 L 506.259,894.252 L 507.722,908.168 L 506.259,922.083 L 501.935,935.39 L 494.939,947.508 L 485.577,957.906 L 474.257,966.13 L 461.475,971.821 L 447.789,974.73 L 433.797,974.73 L 420.11,971.821 L 407.328,966.13 L 396.008,957.906 L 386.646,947.508 L 379.65,935.39 L 378.48,931.79 L 355.925,931.79 L 297.244,990.471 L 297.244,1242.13 L 564.961,1242.13 L 569.569,1242.58 L 574,1243.92 L 578.084,1246.11 L 581.664,1249.04 L 742.462,1409.84 L 1088.25,1409.84 L 1092.52,1405.57 L 1092.52,1228.74 L 1090.55,1228.74 L 1090.55,1145.28 L 1092.52,1145.28 L 1092.52,1113.78 L 1092.97,1109.17 L 1094.32,1104.74 L 1096.5,1100.66 L 1099.44,1097.08 L 1171.26,1025.25 L 1171.26,982.283 L 1064.96,982.283 L 1060.05,981.767 L 1055.35,980.241 L 1051.08,977.772 L 1047.41,974.468 L 1044.1,969.557 L 1042.33,967.848 L 1041.37,965.146 L 1041.37,952.177 L 1042.33,949.475 L 1044.1,947.766 L 1047.41,942.855 L 1051.08,939.551 L 1055.35,937.082 L 1060.05,935.556 L 1064.96,935.039 L 1137.85,935.039 L 1099.44,896.625 L 1096.33,892.787 L 1094.09,888.387 L 1092.81,883.617 L 1092.55,878.685 L 1093.32,873.807 L 1095.09,869.197 L 1095.82,868.083 L 1094.56,865.907 L 1093.04,861.211 L 1092.52,856.299 L 1092.52,598.819 L 1090.55,598.819 L 1090.55,515.354 L 1092.52,515.354 L 1092.52,483.858 L 1092.97,479.25 L 1094.32,474.819 L 1096.5,470.735 L 1099.44,467.155 L 1171.26,395.333 L 1171.26,352.362 L 1064.96,352.362 L 1060.05,351.846 L 1055.35,350.32 L 1051.08,347.851 L 1047.41,344.546 L 1044.1,339.636 z " style="fill-opacity:1.000000;fill:rgb(84,248,27);stroke:rgb(0,0,0);stroke-width:2"/></g>
<g fill-rule="evenodd"><path d="M 2802.02,1057.09 L 2808.55,1045.44 L 2816.94,1036.12 L 2827.09,1028.75 L 2838.55,1023.65 L 2850.81,1021.04 L 2863.36,1021.04 L 2875.63,1023.65 L 2887.09,1028.75 L 2897.23,1036.12 L 2905.63,1045.44 L 2911.9,1056.3 L 2915.78,1068.23 L 2917.09,1080.71 L 2915.78,1093.18 L 2911.9,1105.11 L 2905.63,1115.98 L 2897.23,1125.3 L 2887.09,1132.67 L 2875.63,1137.77 L 2863.36,1140.38 L 2850.81,1140.38 L 2838.55,1137.77 L 2827.09,1132.67 L 2816.94,1125.3 L 2808.55,1115.98 L 2802.02,1104.33 L 2147.64,1104.33 L 2143.03,1103.88 L 2138.6,1102.53 L 2134.51,1100.35 L 2130.93,1097.41 L 2035.68,1002.15 L 2031.72,998.987 L 1930.84,898.108 L 1924.23,901.055 L 1910.54,903.964 L 1896.55,903.964 L 1882.86,901.055 L 1870.08,895.364 L 1858.76,887.14 L 1849.4,876.742 L 1842.4,864.624 L 1841.23,861.023 L 1534.19,861.024 L 1216.54,1178.68 L 1216.54,1228.74 L 1165.35,1228.74 L 1165.35,1145.28 L 1183.13,1145.28 L 1507.71,820.698 L 1511.29,817.761 L 1515.37,815.578 L 1519.8,814.233 L 1524.41,813.78 L 1841.23,813.78 L 1842.4,810.179 L 1849.4,798.062 L 1858.76,787.664 L 1870.08,779.439 L 1882.86,773.748 L 1896.55,770.839 L 1910.54,770.839 L 1924.23,773.748 L 1937.01,779.439 L 1948.33,787.664 L 1957.69,798.062 L 1964.69,810.179 L 1969.01,823.486 L 1970.47,837.402 L 1969.01,851.317 L 1964.5,864.95 L 2061.96,962.413 L 2065.92,965.58 L 2157.42,1057.09 L 2802.02,1057.09 z " style="fill-opacity:1.000000;fill:rgb(232,231,141);stroke:rgb(0,0,0);stroke-width:2"/></g>
<g fill-rule="evenodd"><path d="M 3001.54,1202.85 L 2998.4,1193.18 L 2997.09,1180.71 L 2998.4,1168.23 L 3002.27,1156.3 L 3008.55,1145.44 L 3016.94,1136.12 L 3027.09,1128.75 L 3038.55,1123.65 L 3050.81,1121.04 L 3063.36,1121.04 L 3075.63,1123.65 L 3087.09,1128.75 L 3097.23,1136.12 L 3105.63,1145.44 L 3111.9,1156.3 L 3115.78,1168.23 L 3117.09,1180.71 L 3115.78,1193.18 L 3111.9,1205.11 L 3105.63,1215.98 L 3097.23,1225.3 L 3087.09,1232.67 L 3075.63,1237.77 L 3063.36,1240.38 L 3050.81,1240.38 L 3038.55,1237.77 L 3035.01,1236.2 L 3020.71,1250.49 L 3020.71,1276.12 L 3020.25,1280.73 L 3018.91,1285.16 L 3016.73,1289.25 L 3013.79,1292.83 L 2852.51,1454.1 L 2848.93,1457.04 L 2844.85,1459.23 L 2840.42,1460.57 L 2835.81,1461.02 L 1998.2,1461.02 L 1993.28,1460.51 L 1988.59,1458.98 L 1984.31,1456.51 L 1980.6,1453.15 L 1968.41,1453.15 L 1964.69,1464.62 L 1957.69,1476.74 L 1948.33,1487.14 L 1937.01,1495.36 L 1924.23,1501.05 L 1910.54,1503.96 L 1896.55,1503.96 L 1882.86,1501.05 L 1870.08,1495.36 L 1858.76,1487.14 L 1849.4,1476.74 L 1842.4,1464.62 L 1838.67,1453.15 L 1757.24,1453.15 L 1540.82,1669.75 L 1537.24,1672.69 L 1533.16,1674.87 L 1528.72,1676.22 L 1524.12,1676.67 L 503.105,1676.67 L 501.935,1680.27 L 494.939,1692.39 L 485.577,1702.79 L 474.257,1711.01 L 461.475,1716.7 L 447.789,1719.61 L 433.797,1719.61 L 420.11,1716.7 L 407.328,1711.01 L 396.008,1702.79 L 386.646,1692.39 L 379.65,1680.27 L 375.326,1666.96 L 373.863,1653.05 L 375.326,1639.13 L 379.65,1625.83 L 386.646,1613.71 L 396.008,1603.31 L 407.328,1595.09 L 420.11,1589.4 L 433.797,1586.49 L 447.789,1586.49 L 461.475,1589.4 L 474.257,1595.09 L 485.577,1603.31 L 494.939,1613.71 L 501.935,1625.83 L 503.105,1629.43 L 1514.33,1629.43 L 1723.06,1420.7 L 1726.9,1417.59 L 1731.3,1415.35 L 1736.07,1414.07 L 1741,1413.81 L 1745.88,1414.58 L 1750.49,1416.35 L 1754.63,1419.04 L 1757.24,1421.65 L 1838.67,1421.65 L 1842.4,1410.18 L 1849.4,1398.06 L 1858.76,1387.66 L 1870.08,1379.44 L 1882.86,1373.75 L 1896.55,1370.84 L 1910.54,1370.84 L 1924.23,1373.75 L 1937.01,1379.44 L 1948.33,1387.66 L 1957.69,1398.06 L 1964.69,1410.18 L 1968.41,1421.65 L 1980.6,1421.65 L 1984.31,1418.29 L 1988.59,1415.82 L 1993.28,1414.3 L 1998.2,1413.78 L 2826.02,1413.78 L 2973.46,1266.34 L 2973.46,1240.71 L 2973.92,1236.1 L 2975.26,1231.67 L 2977.45,1227.58 L 2980.38,1224.01 L 3001.54,1202.85 z " style="fill-opacity:1.000000;fill:rgb(118,90,46);stroke:rgb(0,0,0);stroke-width:2"/></g>
<g fill-rule="evenodd"><path d="M 2835.01,825.221 L 2838.55,823.645 L 2850.81,821.037 L 2863.36,821.037 L 2875.63,823.645 L 2887.09,828.747 L 2897.23,836.12 L 2905.63,845.442 L 2911.9,856.304 L 2915.78,868.234 L 2917.09,880.709 L 2915.78,893.183 L 2911.9,905.113 L 2905.63,915.976 L 2897.23,925.297 L 2887.09,932.67 L 2875.63,937.772 L 2863.36,940.38 L 2850.81,940.38 L 2838.55,937.772 L 2827.09,932.67 L 2816.94,925.297 L 2808.55,915.976 L 2802.27,905.113 L 2798.4,893.183 L 2797.09,880.709 L 2798.4,868.234 L 2801.54,858.567 L 2403.99,461.024 L 1965.86,461.024 L 1964.69,464.624 L 1957.69,476.742 L 1948.33,487.14 L 1937.01,495.364 L 1924.23,501.055 L 1910.54,503.964 L 1896.55,503.964 L 1882.86,501.055 L 1870.08,495.364 L 1868.79,494.427 L 1807.35,555.865 L 1807.35,559.556 L 1806.32,564.386 L 1804.32,568.898 L 1801.41,572.893 L 1797.74,576.197 L 1793.47,578.666 L 1788.77,580.192 L 1783.86,580.709 L 1216.54,580.709 L 1216.54,598.819 L 1165.35,598.819 L 1165.35,515.354 L 1216.54,515.354 L 1216.54,533.465 L 1785.08,533.593 L 1846.66,472.009 L 1842.4,464.624 L 1838.08,451.317 L 1836.61,437.402 L 1838.08,423.486 L 1842.4,410.179 L 1849.4,398.062 L 1858.76,387.664 L 1870.08,379.439 L 1882.86,373.748 L 1896.55,370.839 L 1910.54,370.839 L 1924.23,373.748 L 1937.01,379.439 L 1948.33,387.664 L 1957.69,398.062 L 1964.69,410.179 L 1965.86,413.78 L 2413.78,413.78 L 2418.39,414.233 L 2422.82,415.578 L 2426.9,417.761 L 2430.48,420.698 L 2835.01,825.221 z " style="fill-opacity:1.000000;fill:rgb(99,51,159);stroke:rgb(0,0,0);stroke-width:2"/></g>
<g fill-rule="evenodd"><path d="M 3001.54,802.85 L 2998.4,793.183 L 2997.09,780.709 L 2998.4,768.234 L 3002.27,756.304 L 3008.55,745.442 L 3016.94,736.12 L 3027.09,728.747 L 3038.55,723.645 L 3050.81,721.037 L 3063.36,721.037 L 3075.63,723.645 L 3087.09,728.747 L 3097.23,736.12 L 3105.63,745.442 L 3111.9,756.304 L 3115.78,768.234 L 3117.09,780.709 L 3115.78,793.183 L 3111.9,805.113 L 3105.63,815.976 L 3097.23,825.297 L 3087.09,832.67 L 3075.63,837.772 L 3063.36,840.38 L 3050.81,840.38 L 3038.55,837.772 L 3035.01,836.196 L 3020.71,850.493 L 3020.71,876.123 L 3020.25,880.731 L 3018.91,885.163 L 3016.73,889.247 L 3013.79,892.826 L 2917.71,988.908 L 2914.13,991.846 L 2910.04,994.029 L 2905.61,995.373 L 2901,995.827 L 2238.35,995.827 L 2233.74,995.373 L 2229.31,994.029 L 2225.22,991.846 L 2221.64,988.908 L 1930.84,698.108 L 1924.23,701.055 L 1910.54,703.964 L 1896.55,703.964 L 1882.86,701.055 L 1870.08,695.364 L 1858.76,687.14 L 1849.4,676.742 L 1842.4,664.624 L 1841.23,661.023 L 1266.49,660.895 L 1216.54,710.854 L 1216.54,772.047 L 1165.35,772.047 L 1165.35,688.583 L 1194.26,688.583 L 1244.22,638.623 L 1244.22,634.932 L 1245.25,630.102 L 1247.26,625.591 L 1250.16,621.595 L 1253.83,618.291 L 1258.11,615.822 L 1262.81,614.296 L 1267.72,613.78 L 1841.23,613.78 L 1842.4,610.179 L 1849.4,598.062 L 1858.76,587.664 L 1870.08,579.439 L 1882.86,573.748 L 1896.55,570.839 L 1910.54,570.839 L 1924.23,573.748 L 1937.01,579.439 L 1948.33,587.664 L 1957.69,598.062 L 1964.69,610.179 L 1969.01,623.486 L 1970.47,637.402 L 1969.01,651.317 L 1964.5,664.95 L 2248.13,948.583 L 2891.22,948.583 L 2973.46,866.338 L 2973.46,840.709 L 2973.92,836.1 L 2975.26,831.669 L 2977.45,827.585 L 2980.38,824.005 L 3001.54,802.85 z " style="fill-opacity:1.000000;fill:rgb(201,154,102);stroke:rgb(0,0,0);stroke-width:2"/></g>
<g fill-rule="evenodd"><path d="M 3001.54,1002.85 L 2998.4,993.183 L 2997.09,980.709 L 2998.4,968.234 L 3002.27,956.304 L 3008.55,945.442 L 3016.94,936.12 L 3027.09,928.747 L 3038.55,923.645 L 3050.81,921.037 L 3063.36,921.037 L 3075.63,923.645 L 3087.09,928.747 L 3097.23,936.12 L 3105.63,945.442 L 3111.9,956.304 L 3115.78,968.234 L 3117.09,980.709 L 3115.78,993.183 L 3111.9,1005.11 L 3105.63,1015.98 L 3097.23,1025.3 L 3087.09,1032.67 L 3075.63,1037.77 L 3063.36,1040.38 L 3050.81,1040.38 L 3038.55,1037.77 L 3035.01,1036.2 L 3020.71,1050.49 L 3020.71,1076.12 L 3020.25,1080.73 L 3018.91,1085.16 L 3016.73,1089.25 L 3013.79,1092.83 L 2917.71,1188.91 L 2914.13,1191.85 L 2910.04,1194.03 L 2905.61,1195.37 L 2901,1195.83 L 2038.35,1195.83 L 2033.74,1195.37 L 2029.31,1194.03 L 2025.22,1191.85 L 2021.64,1188.91 L 1930.84,1098.11 L 1924.23,1101.05 L 1910.54,1103.96 L 1896.55,1103.96 L 1882.86,1101.05 L 1876.24,1098.11 L 1597.41,1376.94 L 1593.83,1379.88 L 1589.75,1382.06 L 1585.32,1383.4 L 1580.71,1383.86 L 1216.54,1383.86 L 1216.54,1401.97 L 1165.35,1401.97 L 1165.35,1318.5 L 1216.54,1318.5 L 1216.54,1336.61 L 1570.92,1336.61 L 1842.59,1064.95 L 1838.08,1051.32 L 1836.61,1037.4 L 1838.08,1023.49 L 1842.4,1010.18 L 1849.4,998.062 L 1858.76,987.664 L 1870.08,979.439 L 1882.86,973.748 L 1896.55,970.839 L 1910.54,970.839 L 1924.23,973.748 L 1937.01,979.439 L 1948.33,987.664 L 1957.69,998.062 L 1964.69,1010.18 L 1969.01,1023.49 L 1970.47,1037.4 L 1969.01,1051.32 L 1964.5,1064.95 L 2048.13,1148.58 L 2891.22,1148.58 L 2973.46,1066.34 L 2973.46,1040.71 L 2973.92,1036.1 L 2975.26,1031.67 L 2977.45,1027.58 L 2980.38,1024.01 L 3001.54,1002.85 z " style="fill-opacity:1.000000;fill:rgb(50,13,183);stroke:rgb(0,0,0);stroke-width:2"/></g>
</svg>
