<?xml version="1.0" standalone="no"?>
<!DOCTYPE svg PUBLIC "-//W3C//DTD SVG 1.1//EN"
"http://www.w3.org/Graphics/SVG/1.1/DTD/svg11.dtd">
<svg width="200.882" height="98.8346" viewBox="0 0 4185.04 2059.06" version="1.1"
xmlns="http://www.w3.org/2000/svg"
xmlns:xlink="http://www.w3.org/1999/xlink">
<g fill-rule="evenodd"><path d="M 3.97904e-13,2059.06 L 3.97904e-13,-5.68434e-14 L 4185.04,-5.68434e-14 L 4185.04,2059.06 L 3.97904e-13,2059.06 z " style="fill-opacity:0.200000;fill:rgb(103,198,105);"/></g>
<polyline points="84.6458,1895.67 84.6458,163.386 86.1598,148.026 90.6398,133.254 97.9158,119.642 107.71,107.71 119.642,97.9158 133.254,90.6398 148.026,86.1598 163.386,84.6458 4021.65,84.6458 4037.01,86.1598 4051.79,90.6398 4065.4,97.9158 4077.33,107.71 4087.12,119.642 4094.4,133.254 4098.88,148.026 4100.39,163.386 4100.39,1895.67 4098.88,1911.03 4094.4,1925.8 4087.12,1939.41 4077.33,1951.35 4065.4,1961.14 4051.79,1968.41 4037.01,1972.9 4021.65,1974.41 163.386,1974.41 148.026,1972.9 133.254,1968.41 119.642,1961.14 107.71,1951.35 97.9158,1939.41 90.6398,1925.8 86.1598,1911.03 84.6458,1895.67" style="stroke:rgb(103,198,105);stroke-width:157.480315;fill:none;stroke-opacity:0.5;stroke-linecap:round;stroke-linejoin:round;;fill:none"/>
<polyline points="84.6458,1895.67 84.6458,163.386 86.1598,148.026 90.6398,133.254 97.9158,119.642 107.71,107.71 119.642,97.9158 133.254,90.6398 148.026,86.1598 163.386,84.6458 4021.65,84.6458 4037.01,86.1598 4051.79,90.6398 4065.4,97.9158 4077.33,107.71 4087.12,119.642 4094.4,133.254 4098.88,148.026 4100.39,163.386 4100.39,1895.67 4098.88,1911.03 4094.4,1925.8 4087.12,1939.41 4077.33,1951.35 4065.4,1961.14 4051.79,1968.41 4037.01,1972.9 4021.65,1974.41 163.386,1974.41 148.026,1972.9 133.254,1968.41 119.642,1961.14 107.71,1951.35 97.9158,1939.41 90.6398,1925.8 86.1598,1911.03 84.6458,1895.67" style="stroke:rgb(0,0,0);stroke-width:1px;fill:none;stroke-opacity:1;stroke-linecap:round;stroke-linejoin:round;;fill:none"/>
<g fill-rule="evenodd"><path d="M 163.386,1895.67 L 163.386,163.386 L 4021.65,163.386 L 4021.65,1895.67 L 163.386,1895.67 z " style="fill-opacity:1.000000;fill:rgb(103,198,105);stroke:rgb(0,0,0);stroke-width:2"/></g>
</svg>
