<?xml version="1.0" standalone="no"?>
<!DOCTYPE svg PUBLIC "-//W3C//DTD SVG 1.1//EN"
"http://www.w3.org/Graphics/SVG/1.1/DTD/svg11.dtd">
<svg width="200.882" height="98.8346" viewBox="0 0 4185.04 2059.06" version="1.1"
xmlns="http://www.w3.org/2000/svg"
xmlns:xlink="http://www.w3.org/1999/xlink">
<polyline points="3429.13,631.102 3431.93,657.704 3440.2,683.144 3453.57,706.31 3471.47,726.188 3493.11,741.912 3517.55,752.792 3543.71,758.354 3570.46,758.354 3596.63,752.792 3621.06,741.912 3642.7,726.188 3660.6,706.31 3673.98,683.144 3682.24,657.704 3685.04,631.102 3682.24,604.498 3673.98,579.058 3660.6,555.892 3642.7,536.014 3621.06,520.292 3596.63,509.412 3570.46,503.85 3543.71,503.85 3517.55,509.412 3493.11,520.292 3471.47,536.014 3453.57,555.892 3440.2,579.058 3431.93,604.498 3429.13,631.102" style="stroke:rgb(103,198,105);stroke-width:0.000000;fill:none;stroke-opacity:0.5;stroke-linecap:round;stroke-linejoin:round;;fill:none"/>
<polyline points="3429.13,631.102 3431.93,657.704 3440.2,683.144 3453.57,706.31 3471.47,726.188 3493.11,741.912 3517.55,752.792 3543.71,758.354 3570.46,758.354 3596.63,752.792 3621.06,741.912 3642.7,726.188 3660.6,706.31 3673.98,683.144 3682.24,657.704 3685.04,631.102 3682.24,604.498 3673.98,579.058 3660.6,555.892 3642.7,536.014 3621.06,520.292 3596.63,509.412 3570.46,503.85 3543.71,503.85 3517.55,509.412 3493.11,520.292 3471.47,536.014 3453.57,555.892 3440.2,579.058 3431.93,604.498 3429.13,631.102" style="stroke:rgb(0,0,0);stroke-width:1px;fill:none;stroke-opacity:1;stroke-linecap:round;stroke-linejoin:round;;fill:none"/>
<polyline points="3429.13,1431.1 3431.93,1457.7 3440.2,1483.14 3453.57,1506.31 3471.47,1526.19 3493.11,1541.91 3517.55,1552.79 3543.71,1558.35 3570.46,1558.35 3596.63,1552.79 3621.06,1541.91 3642.7,1526.19 3660.6,1506.31 3673.98,1483.14 3682.24,1457.7 3685.04,1431.1 3682.24,1404.5 3673.98,1379.06 3660.6,1355.89 3642.7,1336.01 3621.06,1320.29 3596.63,1309.41 3570.46,1303.85 3543.71,1303.85 3517.55,1309.41 3493.11,1320.29 3471.47,1336.01 3453.57,1355.89 3440.2,1379.06 3431.93,1404.5 3429.13,1431.1" style="stroke:rgb(115,81,255);stroke-width:0.000000;fill:none;stroke-opacity:0.5;stroke-linecap:round;stroke-linejoin:round;;fill:none"/>
<polyline points="3429.13,1431.1 3431.93,1457.7 3440.2,1483.14 3453.57,1506.31 3471.47,1526.19 3493.11,1541.91 3517.55,1552.79 3543.71,1558.35 3570.46,1558.35 3596.63,1552.79 3621.06,1541.91 3642.7,1526.19 3660.6,1506.31 3673.98,1483.14 3682.24,1457.7 3685.04,1431.1 3682.24,1404.5 3673.98,1379.06 3660.6,1355.89 3642.7,1336.01 3621.06,1320.29 3596.63,1309.41 3570.46,1303.85 3543.71,1303.85 3517.55,1309.41 3493.11,1320.29 3471.47,1336.01 3453.57,1355.89 3440.2,1379.06 3431.93,1404.5 3429.13,1431.1" style="stroke:rgb(0,0,0);stroke-width:1px;fill:none;stroke-opacity:1;stroke-linecap:round;stroke-linejoin:round;;fill:none"/>
<polyline points="373.862,708.166 375.326,722.082 379.648,735.39 386.644,747.506 396.008,757.904 407.328,766.13 420.11,771.82 433.796,774.73 447.788,774.73 461.474,771.82 474.256,766.13 485.576,757.904 494.938,747.506 503.104,731.788 1015.75,731.788 1015.75,772.046 1066.93,772.046 1066.93,688.582 1032.25,688.582 1024.1,685.06 1019.19,684.544 503.104,684.544 494.938,668.826 485.576,658.428 474.256,650.204 461.474,644.514 447.788,641.604 433.796,641.604 420.11,644.514 407.328,650.204 396.008,658.428 386.644,668.826 379.648,680.944 375.326,694.252 373.862,708.166" style="stroke:rgb(74,236,41);stroke-width:0.000000;fill:none;stroke-opacity:0.5;stroke-linecap:round;stroke-linejoin:round;;fill:none"/>
<polyline points="373.862,708.166 375.326,722.082 379.648,735.39 386.644,747.506 396.008,757.904 407.328,766.13 420.11,771.82 433.796,774.73 447.788,774.73 461.474,771.82 474.256,766.13 485.576,757.904 494.938,747.506 503.104,731.788 1015.75,731.788 1015.75,772.046 1066.93,772.046 1066.93,688.582 1032.25,688.582 1024.1,685.06 1019.19,684.544 503.104,684.544 494.938,668.826 485.576,658.428 474.256,650.204 461.474,644.514 447.788,641.604 433.796,641.604 420.11,644.514 407.328,650.204 396.008,658.428 386.644,668.826 379.648,680.944 375.326,694.252 373.862,708.166" style="stroke:rgb(0,0,0);stroke-width:1px;fill:none;stroke-opacity:1;stroke-linecap:round;stroke-linejoin:round;;fill:none"/>
<polyline points="373.862,1108.17 375.326,1122.08 379.648,1135.39 386.644,1147.51 396.008,1157.9 407.328,1166.13 420.11,1171.82 433.796,1174.73 447.788,1174.73 461.474,1171.82 474.256,1166.13 485.576,1157.9 494.938,1147.51 503.104,1131.79 625.942,1131.79 874.67,1379.88 878.754,1382.06 887.794,1383.86 1015.75,1383.86 1015.75,1401.97 1066.93,1401.97 1066.93,1318.5 1015.75,1318.5 1015.75,1336.61 897.58,1336.61 652.43,1091.46 644.766,1086.34 635.726,1084.54 503.104,1084.54 494.938,1068.83 485.576,1058.43 474.256,1050.2 461.474,1044.51 447.788,1041.6 433.796,1041.6 420.11,1044.51 407.328,1050.2 396.008,1058.43 386.644,1068.83 379.648,1080.94 375.326,1094.25 373.862,1108.17" style="stroke:rgb(205,186,171);stroke-width:0.000000;fill:none;stroke-opacity:0.5;stroke-linecap:round;stroke-linejoin:round;;fill:none"/>
<polyline points="373.862,1108.17 375.326,1122.08 379.648,1135.39 386.644,1147.51 396.008,1157.9 407.328,1166.13 420.11,1171.82 433.796,1174.73 447.788,1174.73 461.474,1171.82 474.256,1166.13 485.576,1157.9 494.938,1147.51 503.104,1131.79 625.942,1131.79 874.67,1379.88 878.754,1382.06 887.794,1383.86 1015.75,1383.86 1015.75,1401.97 1066.93,1401.97 1066.93,1318.5 1015.75,1318.5 1015.75,1336.61 897.58,1336.61 652.43,1091.46 644.766,1086.34 635.726,1084.54 503.104,1084.54 494.938,1068.83 485.576,1058.43 474.256,1050.2 461.474,1044.51 447.788,1041.6 433.796,1041.6 420.11,1044.51 407.328,1050.2 396.008,1058.43 386.644,1068.83 379.648,1080.94 375.326,1094.25 373.862,1108.17" style="stroke:rgb(0,0,0);stroke-width:1px;fill:none;stroke-opacity:1;stroke-linecap:round;stroke-linejoin:round;;fill:none"/>
<polyline points="373.862,1519.98 373.862,1386.12 507.72,1386.12 507.72,1429.43 586.906,1429.43 595.946,1431.22 603.61,1436.35 653.484,1486.22 1500.06,1486.22 1769.42,1217.59 1773.82,1215.35 1783.52,1213.81 1793.01,1216.35 1799.76,1221.65 1838.67,1221.65 1842.4,1210.18 1849.4,1198.06 1858.76,1187.66 1870.08,1179.44 1882.86,1173.75 1896.55,1170.84 1910.54,1170.84 1924.22,1173.75 1937.01,1179.44 1948.33,1187.66 1957.69,1198.06 1964.69,1210.18 1969.01,1223.49 1970.47,1237.4 1969.01,1251.32 1967.13,1257.09 2802.02,1257.09 2808.54,1245.44 2816.94,1236.12 2827.09,1228.75 2838.54,1223.64 2850.81,1221.04 2863.36,1221.04 2875.63,1223.64 2887.09,1228.75 2897.23,1236.12 2905.63,1245.44 2911.9,1256.3 2915.77,1268.23 2917.09,1280.71 2915.77,1293.18 2911.9,1305.11 2905.63,1315.97 2897.23,1325.3 2887.09,1332.67 2875.63,1337.77 2863.36,1340.38 2850.81,1340.38 2838.54,1337.77 2827.09,1332.67 2816.94,1325.3 2808.54,1315.97 2802.02,1304.33 1946.85,1304.33 1937.24,1302.29 1930.99,1298.04 1924.22,1301.05 1910.54,1303.96 1896.55,1303.96 1882.86,1301.05 1870.08,1295.36 1858.76,1287.14 1849.4,1276.74 1842.4,1264.62 1838.67,1253.15 1799.76,1253.15 1526.55,1526.55 1518.88,1531.67 1514.45,1533.01 643.7,1533.46 634.66,1531.67 626.996,1526.55 577.122,1476.67 507.72,1476.67 507.72,1519.98 373.862,1519.98" style="stroke:rgb(242,251,227);stroke-width:0.000000;fill:none;stroke-opacity:0.5;stroke-linecap:round;stroke-linejoin:round;;fill:none"/>
<polyline points="373.862,1519.98 373.862,1386.12 507.72,1386.12 507.72,1429.43 586.906,1429.43 595.946,1431.22 603.61,1436.35 653.484,1486.22 1500.06,1486.22 1769.42,1217.59 1773.82,1215.35 1783.52,1213.81 1793.01,1216.35 1799.76,1221.65 1838.67,1221.65 1842.4,1210.18 1849.4,1198.06 1858.76,1187.66 1870.08,1179.44 1882.86,1173.75 1896.55,1170.84 1910.54,1170.84 1924.22,1173.75 1937.01,1179.44 1948.33,1187.66 1957.69,1198.06 1964.69,1210.18 1969.01,1223.49 1970.47,1237.4 1969.01,1251.32 1967.13,1257.09 2802.02,1257.09 2808.54,1245.44 2816.94,1236.12 2827.09,1228.75 2838.54,1223.64 2850.81,1221.04 2863.36,1221.04 2875.63,1223.64 2887.09,1228.75 2897.23,1236.12 2905.63,1245.44 2911.9,1256.3 2915.77,1268.23 2917.09,1280.71 2915.77,1293.18 2911.9,1305.11 2905.63,1315.97 2897.23,1325.3 2887.09,1332.67 2875.63,1337.77 2863.36,1340.38 2850.81,1340.38 2838.54,1337.77 2827.09,1332.67 2816.94,1325.3 2808.54,1315.97 2802.02,1304.33 1946.85,1304.33 1937.24,1302.29 1930.99,1298.04 1924.22,1301.05 1910.54,1303.96 1896.55,1303.96 1882.86,1301.05 1870.08,1295.36 1858.76,1287.14 1849.4,1276.74 1842.4,1264.62 1838.67,1253.15 1799.76,1253.15 1526.55,1526.55 1518.88,1531.67 1514.45,1533.01 643.7,1533.46 634.66,1531.67 626.996,1526.55 577.122,1476.67 507.72,1476.67 507.72,1519.98 373.862,1519.98" style="stroke:rgb(0,0,0);stroke-width:1px;fill:none;stroke-opacity:1;stroke-linecap:round;stroke-linejoin:round;;fill:none"/>
<polyline points="318.744,783.312 319.198,503.558 322.726,495.044 329.242,488.526 333.326,486.342 342.366,484.544 373.862,484.544 373.862,441.238 507.72,441.238 507.72,484.544 898.976,484.544 935.038,448.482 935.038,328.74 936.836,319.7 939.02,315.616 945.536,309.098 949.62,306.916 958.66,305.118 1009.84,305.118 1014.75,305.634 1023.73,309.628 1027.4,312.934 1033.44,322.256 1033.35,335.796 1027.4,344.546 1019.45,350.32 1014.75,351.846 982.282,352.362 982.282,448.482 1049.15,515.354 1066.93,515.354 1066.93,598.818 1015.75,598.818 1015.75,553.766 981.284,519.302 977.716,513.81 976.824,509.836 958.66,491.674 921.884,527.808 913.37,531.334 908.76,531.788 507.72,531.788 507.72,575.096 373.862,575.096 373.862,531.788 365.988,531.788 365.988,773.526 375.432,782.97 732.46,783.424 736.892,784.768 744.556,789.888 889.704,935.038 1009.84,935.038 1014.75,935.554 1023.73,939.55 1033.01,950.496 1033.44,965.144 1027.4,974.466 1019.45,980.24 1009.84,982.282 903.542,982.282 903.542,1072.89 994.036,1163.39 1015.75,1163.39 1015.75,1145.27 1066.93,1145.27 1066.93,1228.74 1015.75,1228.74 1015.75,1210.63 984.252,1210.63 979.642,1210.18 971.128,1206.65 863.218,1099.38 858.096,1091.72 856.298,1082.68 856.298,968.446 718.068,830.214 361.038,829.76 352.524,826.234 348.944,823.296 325.664,800.014 320.542,792.352 318.744,783.312" style="stroke:rgb(70,124,194);stroke-width:0.000000;fill:none;stroke-opacity:0.5;stroke-linecap:round;stroke-linejoin:round;;fill:none"/>
<polyline points="318.744,783.312 319.198,503.558 322.726,495.044 329.242,488.526 333.326,486.342 342.366,484.544 373.862,484.544 373.862,441.238 507.72,441.238 507.72,484.544 898.976,484.544 935.038,448.482 935.038,328.74 936.836,319.7 939.02,315.616 945.536,309.098 949.62,306.916 958.66,305.118 1009.84,305.118 1014.75,305.634 1023.73,309.628 1027.4,312.934 1033.44,322.256 1033.35,335.796 1027.4,344.546 1019.45,350.32 1014.75,351.846 982.282,352.362 982.282,448.482 1049.15,515.354 1066.93,515.354 1066.93,598.818 1015.75,598.818 1015.75,553.766 981.284,519.302 977.716,513.81 976.824,509.836 958.66,491.674 921.884,527.808 913.37,531.334 908.76,531.788 507.72,531.788 507.72,575.096 373.862,575.096 373.862,531.788 365.988,531.788 365.988,773.526 375.432,782.97 732.46,783.424 736.892,784.768 744.556,789.888 889.704,935.038 1009.84,935.038 1014.75,935.554 1023.73,939.55 1033.01,950.496 1033.44,965.144 1027.4,974.466 1019.45,980.24 1009.84,982.282 903.542,982.282 903.542,1072.89 994.036,1163.39 1015.75,1163.39 1015.75,1145.27 1066.93,1145.27 1066.93,1228.74 1015.75,1228.74 1015.75,1210.63 984.252,1210.63 979.642,1210.18 971.128,1206.65 863.218,1099.38 858.096,1091.72 856.298,1082.68 856.298,968.446 718.068,830.214 361.038,829.76 352.524,826.234 348.944,823.296 325.664,800.014 320.542,792.352 318.744,783.312" style="stroke:rgb(0,0,0);stroke-width:1px;fill:none;stroke-opacity:1;stroke-linecap:round;stroke-linejoin:round;;fill:none"/>
<polyline points="250,1777.56 250.454,976.076 253.98,967.562 256.918,963.982 333.016,888.526 337.1,886.342 346.14,884.544 378.48,884.544 386.644,868.826 396.008,858.428 407.328,850.204 420.11,844.514 433.796,841.604 447.788,841.604 461.474,844.514 474.256,850.204 485.576,858.428 494.938,868.826 501.934,880.944 506.258,894.252 507.72,908.166 506.258,922.082 501.934,935.39 494.938,947.506 485.576,957.904 474.256,966.13 461.474,971.82 447.788,974.73 433.796,974.73 420.11,971.82 407.328,966.13 396.008,957.904 386.644,947.506 378.48,931.788 355.924,931.788 297.244,990.47 297.244,1242.13 564.96,1242.13 574,1243.92 581.664,1249.04 742.462,1409.84 1088.25,1409.84 1092.52,1405.57 1092.52,1228.74 1090.55,1228.74 1090.55,1145.27 1092.52,1145.27 1092.97,1109.17 1094.32,1104.74 1099.44,1097.08 1171.26,1025.25 1171.26,982.282 1060.05,981.766 1051.08,977.772 1042.33,967.848 1041.37,952.176 1047.41,942.854 1051.08,939.55 1060.05,935.554 1137.85,935.038 1099.44,896.624 1094.09,888.386 1092.81,883.616 1093.32,873.806 1095.82,868.082 1093.04,861.21 1092.52,856.298 1092.52,598.818 1090.55,598.818 1090.55,515.354 1092.52,515.354 1092.97,479.25 1096.5,470.734 1171.26,395.332 1171.26,352.362 1064.96,352.362 1055.35,350.32 1047.41,344.546 1041.37,335.224 1042.33,319.552 1047.41,312.934 1055.35,307.16 1064.96,305.118 1199.49,305.572 1208,309.098 1211.58,312.036 1216.7,319.7 1218.5,328.74 1218.5,405.118 1216.7,414.158 1211.58,421.82 1139.76,493.642 1139.76,515.354 1141.73,515.354 1141.73,598.818 1139.76,598.818 1139.76,856.298 1136.92,867.294 1211.58,941.958 1216.7,949.62 1218.5,958.66 1218.5,1035.04 1216.7,1044.08 1211.58,1051.74 1139.76,1123.56 1139.76,1145.27 1141.73,1145.27 1141.73,1228.74 1139.76,1228.74 1139.76,1415.35 1137.96,1424.39 1132.84,1432.06 1111.15,1453.1 1107.07,1455.29 1098.03,1457.09 728.068,1456.63 723.636,1455.29 715.974,1450.17 555.176,1289.37 297.244,1289.37 297.244,1746.06 1663.05,1746.06 1792.25,1617.59 1801.42,1614.07 1806.35,1613.81 1815.84,1616.35 1822.59,1621.65 1836.61,1621.65 1836.61,1570.47 1970.47,1570.47 1970.47,1613.78 3721.32,1613.78 3740.27,1594.83 3736.78,1584.11 3735.43,1571.26 3736.78,1558.41 3740.78,1546.12 3747.24,1534.93 3755.88,1525.32 3766.34,1517.73 3773.62,1514.49 3773.62,578.358 3775.66,568.75 3781.5,560.762 3781.5,550.442 3766.34,544.474 3755.88,536.878 3747.24,527.276 3740.78,516.084 3736.78,503.796 3735.43,490.944 3736.78,478.092 3740.78,465.804 3747.24,454.612 3755.88,445.01 3766.34,437.414 3778.14,432.158 3790.78,429.472 3803.7,429.472 3816.34,432.158 3828.15,437.414 3838.6,445.01 3847.25,454.612 3853.71,465.804 3857.7,478.092 3859.05,490.944 3857.7,503.796 3853.71,516.084 3847.25,527.276 3838.6,536.878 3828.15,544.474 3812.99,550.442 3812.99,560.762 3818.82,568.75 3820.87,578.358 3820.87,1514.49 3828.15,1517.73 3838.6,1525.32 3847.25,1534.93 3853.71,1546.12 3857.7,1558.41 3859.05,1571.26 3857.7,1584.11 3853.71,1596.4 3847.25,1607.59 3838.6,1617.19 3828.15,1624.79 3816.34,1630.04 3803.7,1632.73 3790.78,1632.73 3773.8,1628.11 3747.8,1654.1 3740.14,1659.22 3731.1,1661.02 1970.47,1661.02 1970.47,1704.33 1836.61,1704.33 1836.61,1653.15 1822.59,1653.15 1689.54,1786.39 1681.87,1791.51 1672.83,1793.31 291.054,1793.31 285.432,1798.02 280.92,1800.02 271.152,1801.05 261.81,1798.02 257.814,1795.11 252.042,1787.17 250,1777.56" style="stroke:rgb(84,248,27);stroke-width:0.000000;fill:none;stroke-opacity:0.5;stroke-linecap:round;stroke-linejoin:round;;fill:none"/>
<polyline points="250,1777.56 250.454,976.076 253.98,967.562 256.918,963.982 333.016,888.526 337.1,886.342 346.14,884.544 378.48,884.544 386.644,868.826 396.008,858.428 407.328,850.204 420.11,844.514 433.796,841.604 447.788,841.604 461.474,844.514 474.256,850.204 485.576,858.428 494.938,868.826 501.934,880.944 506.258,894.252 507.72,908.166 506.258,922.082 501.934,935.39 494.938,947.506 485.576,957.904 474.256,966.13 461.474,971.82 447.788,974.73 433.796,974.73 420.11,971.82 407.328,966.13 396.008,957.904 386.644,947.506 378.48,931.788 355.924,931.788 297.244,990.47 297.244,1242.13 564.96,1242.13 574,1243.92 581.664,1249.04 742.462,1409.84 1088.25,1409.84 1092.52,1405.57 1092.52,1228.74 1090.55,1228.74 1090.55,1145.27 1092.52,1145.27 1092.97,1109.17 1094.32,1104.74 1099.44,1097.08 1171.26,1025.25 1171.26,982.282 1060.05,981.766 1051.08,977.772 1042.33,967.848 1041.37,952.176 1047.41,942.854 1051.08,939.55 1060.05,935.554 1137.85,935.038 1099.44,896.624 1094.09,888.386 1092.81,883.616 1093.32,873.806 1095.82,868.082 1093.04,861.21 1092.52,856.298 1092.52,598.818 1090.55,598.818 1090.55,515.354 1092.52,515.354 1092.97,479.25 1096.5,470.734 1171.26,395.332 1171.26,352.362 1064.96,352.362 1055.35,350.32 1047.41,344.546 1041.37,335.224 1042.33,319.552 1047.41,312.934 1055.35,307.16 1064.96,305.118 1199.49,305.572 1208,309.098 1211.58,312.036 1216.7,319.7 1218.5,328.74 1218.5,405.118 1216.7,414.158 1211.58,421.82 1139.76,493.642 1139.76,515.354 1141.73,515.354 1141.73,598.818 1139.76,598.818 1139.76,856.298 1136.92,867.294 1211.58,941.958 1216.7,949.62 1218.5,958.66 1218.5,1035.04 1216.7,1044.08 1211.58,1051.74 1139.76,1123.56 1139.76,1145.27 1141.73,1145.27 1141.73,1228.74 1139.76,1228.74 1139.76,1415.35 1137.96,1424.39 1132.84,1432.06 1111.15,1453.1 1107.07,1455.29 1098.03,1457.09 728.068,1456.63 723.636,1455.29 715.974,1450.17 555.176,1289.37 297.244,1289.37 297.244,1746.06 1663.05,1746.06 1792.25,1617.59 1801.42,1614.07 1806.35,1613.81 1815.84,1616.35 1822.59,1621.65 1836.61,1621.65 1836.61,1570.47 1970.47,1570.47 1970.47,1613.78 3721.32,1613.78 3740.27,1594.83 3736.78,1584.11 3735.43,1571.26 3736.78,1558.41 3740.78,1546.12 3747.24,1534.93 3755.88,1525.32 3766.34,1517.73 3773.62,1514.49 3773.62,578.358 3775.66,568.75 3781.5,560.762 3781.5,550.442 3766.34,544.474 3755.88,536.878 3747.24,527.276 3740.78,516.084 3736.78,503.796 3735.43,490.944 3736.78,478.092 3740.78,465.804 3747.24,454.612 3755.88,445.01 3766.34,437.414 3778.14,432.158 3790.78,429.472 3803.7,429.472 3816.34,432.158 3828.15,437.414 3838.6,445.01 3847.25,454.612 3853.71,465.804 3857.7,478.092 3859.05,490.944 3857.7,503.796 3853.71,516.084 3847.25,527.276 3838.6,536.878 3828.15,544.474 3812.99,550.442 3812.99,560.762 3818.82,568.75 3820.87,578.358 3820.87,1514.49 3828.15,1517.73 3838.6,1525.32 3847.25,1534.93 3853.71,1546.12 3857.7,1558.41 3859.05,1571.26 3857.7,1584.11 3853.71,1596.4 3847.25,1607.59 3838.6,1617.19 3828.15,1624.79 3816.34,1630.04 3803.7,1632.73 3790.78,1632.73 3773.8,1628.11 3747.8,1654.1 3740.14,1659.22 3731.1,1661.02 1970.47,1661.02 1970.47,1704.33 1836.61,1704.33 1836.61,1653.15 1822.59,1653.15 1689.54,1786.39 1681.87,1791.51 1672.83,1793.31 291.054,1793.31 285.432,1798.02 280.92,1800.02 271.152,1801.05 261.81,1798.02 257.814,1795.11 252.042,1787.17 250,1777.56" style="stroke:rgb(0,0,0);stroke-width:1px;fill:none;stroke-opacity:1;stroke-linecap:round;stroke-linejoin:round;;fill:none"/>
<polyline points="1165.35,1228.74 1165.35,1145.27 1183.13,1145.27 1511.28,817.76 1515.37,815.576 1524.41,813.778 1841.23,813.778 1849.4,798.06 1858.76,787.662 1870.08,779.438 1882.86,773.748 1896.55,770.838 1910.54,770.838 1924.22,773.748 1937.01,779.438 1948.33,787.662 1957.69,798.06 1964.69,810.178 1969.01,823.486 1970.47,837.4 1969.01,851.316 1964.5,864.948 2157.42,1057.09 2802.02,1057.09 2808.54,1045.44 2816.94,1036.12 2827.09,1028.75 2838.54,1023.64 2850.81,1021.04 2863.36,1021.04 2875.63,1023.64 2887.09,1028.75 2897.23,1036.12 2905.63,1045.44 2911.9,1056.3 2915.77,1068.23 2917.09,1080.71 2915.77,1093.18 2911.9,1105.11 2905.63,1115.97 2897.23,1125.3 2887.09,1132.67 2875.63,1137.77 2863.36,1140.38 2850.81,1140.38 2838.54,1137.77 2827.09,1132.67 2816.94,1125.3 2808.54,1115.97 2802.02,1104.33 2143.03,1103.88 2138.6,1102.53 2130.93,1097.41 1930.84,898.108 1924.22,901.054 1910.54,903.964 1896.55,903.964 1882.86,901.054 1870.08,895.364 1858.76,887.138 1849.4,876.74 1841.23,861.022 1534.19,861.022 1216.53,1178.68 1216.53,1228.74 1165.35,1228.74" style="stroke:rgb(232,231,141);stroke-width:0.000000;fill:none;stroke-opacity:0.5;stroke-linecap:round;stroke-linejoin:round;;fill:none"/>
<polyline points="1165.35,1228.74 1165.35,1145.27 1183.13,1145.27 1511.28,817.76 1515.37,815.576 1524.41,813.778 1841.23,813.778 1849.4,798.06 1858.76,787.662 1870.08,779.438 1882.86,773.748 1896.55,770.838 1910.54,770.838 1924.22,773.748 1937.01,779.438 1948.33,787.662 1957.69,798.06 1964.69,810.178 1969.01,823.486 1970.47,837.4 1969.01,851.316 1964.5,864.948 2157.42,1057.09 2802.02,1057.09 2808.54,1045.44 2816.94,1036.12 2827.09,1028.75 2838.54,1023.64 2850.81,1021.04 2863.36,1021.04 2875.63,1023.64 2887.09,1028.75 2897.23,1036.12 2905.63,1045.44 2911.9,1056.3 2915.77,1068.23 2917.09,1080.71 2915.77,1093.18 2911.9,1105.11 2905.63,1115.97 2897.23,1125.3 2887.09,1132.67 2875.63,1137.77 2863.36,1140.38 2850.81,1140.38 2838.54,1137.77 2827.09,1132.67 2816.94,1125.3 2808.54,1115.97 2802.02,1104.33 2143.03,1103.88 2138.6,1102.53 2130.93,1097.41 1930.84,898.108 1924.22,901.054 1910.54,903.964 1896.55,903.964 1882.86,901.054 1870.08,895.364 1858.76,887.138 1849.4,876.74 1841.23,861.022 1534.19,861.022 1216.53,1178.68 1216.53,1228.74 1165.35,1228.74" style="stroke:rgb(0,0,0);stroke-width:1px;fill:none;stroke-opacity:1;stroke-linecap:round;stroke-linejoin:round;;fill:none"/>
<polyline points="373.862,1653.05 375.326,1666.96 379.648,1680.27 386.644,1692.39 396.008,1702.79 407.328,1711.01 420.11,1716.7 433.796,1719.61 447.788,1719.61 461.474,1716.7 474.256,1711.01 485.576,1702.79 494.938,1692.39 503.104,1676.67 1524.12,1676.67 1533.15,1674.87 1540.82,1669.75 1757.24,1453.15 1838.67,1453.15 1842.4,1464.62 1849.4,1476.74 1858.76,1487.14 1870.08,1495.36 1882.86,1501.05 1896.55,1503.96 1910.54,1503.96 1924.22,1501.05 1937.01,1495.36 1948.33,1487.14 1957.69,1476.74 1964.69,1464.62 1968.41,1453.15 1980.6,1453.15 1988.59,1458.98 1998.19,1461.02 2840.42,1460.57 2848.93,1457.04 2852.51,1454.1 3013.79,1292.83 3018.91,1285.16 3020.25,1280.73 3020.71,1250.49 3035,1236.2 3050.81,1240.38 3063.36,1240.38 3075.63,1237.77 3087.09,1232.67 3097.23,1225.3 3105.63,1215.97 3111.9,1205.11 3115.77,1193.18 3117.09,1180.71 3115.77,1168.23 3111.9,1156.3 3105.63,1145.44 3097.23,1136.12 3087.09,1128.75 3075.63,1123.64 3063.36,1121.04 3050.81,1121.04 3038.54,1123.64 3027.09,1128.75 3016.94,1136.12 3008.54,1145.44 3002.27,1156.3 2998.4,1168.23 2997.09,1180.71 2998.4,1193.18 3001.54,1202.85 2980.38,1224 2975.26,1231.67 2973.46,1240.71 2973.46,1266.34 2826.02,1413.78 1998.19,1413.78 1988.59,1415.82 1980.6,1421.65 1968.41,1421.65 1964.69,1410.18 1957.69,1398.06 1948.33,1387.66 1937.01,1379.44 1924.22,1373.75 1910.54,1370.84 1896.55,1370.84 1882.86,1373.75 1870.08,1379.44 1858.76,1387.66 1849.4,1398.06 1842.4,1410.18 1838.67,1421.65 1757.24,1421.65 1750.49,1416.35 1741,1413.81 1736.07,1414.07 1726.9,1417.59 1514.33,1629.43 503.104,1629.43 494.938,1613.71 485.576,1603.31 474.256,1595.09 461.474,1589.4 447.788,1586.49 433.796,1586.49 420.11,1589.4 407.328,1595.09 396.008,1603.31 386.644,1613.71 379.648,1625.83 375.326,1639.13 373.862,1653.05" style="stroke:rgb(118,90,46);stroke-width:0.000000;fill:none;stroke-opacity:0.5;stroke-linecap:round;stroke-linejoin:round;;fill:none"/>
<polyline points="373.862,1653.05 375.326,1666.96 379.648,1680.27 386.644,1692.39 396.008,1702.79 407.328,1711.01 420.11,1716.7 433.796,1719.61 447.788,1719.61 461.474,1716.7 474.256,1711.01 485.576,1702.79 494.938,1692.39 503.104,1676.67 1524.12,1676.67 1533.15,1674.87 1540.82,1669.75 1757.24,1453.15 1838.67,1453.15 1842.4,1464.62 1849.4,1476.74 1858.76,1487.14 1870.08,1495.36 1882.86,1501.05 1896.55,1503.96 1910.54,1503.96 1924.22,1501.05 1937.01,1495.36 1948.33,1487.14 1957.69,1476.74 1964.69,1464.62 1968.41,1453.15 1980.6,1453.15 1988.59,1458.98 1998.19,1461.02 2840.42,1460.57 2848.93,1457.04 2852.51,1454.1 3013.79,1292.83 3018.91,1285.16 3020.25,1280.73 3020.71,1250.49 3035,1236.2 3050.81,1240.38 3063.36,1240.38 3075.63,1237.77 3087.09,1232.67 3097.23,1225.3 3105.63,1215.97 3111.9,1205.11 3115.77,1193.18 3117.09,1180.71 3115.77,1168.23 3111.9,1156.3 3105.63,1145.44 3097.23,1136.12 3087.09,1128.75 3075.63,1123.64 3063.36,1121.04 3050.81,1121.04 3038.54,1123.64 3027.09,1128.75 3016.94,1136.12 3008.54,1145.44 3002.27,1156.3 2998.4,1168.23 2997.09,1180.71 2998.4,1193.18 3001.54,1202.85 2980.38,1224 2975.26,1231.67 2973.46,1240.71 2973.46,1266.34 2826.02,1413.78 1998.19,1413.78 1988.59,1415.82 1980.6,1421.65 1968.41,1421.65 1964.69,1410.18 1957.69,1398.06 1948.33,1387.66 1937.01,1379.44 1924.22,1373.75 1910.54,1370.84 1896.55,1370.84 1882.86,1373.75 1870.08,1379.44 1858.76,1387.66 1849.4,1398.06 1842.4,1410.18 1838.67,1421.65 1757.24,1421.65 1750.49,1416.35 1741,1413.81 1736.07,1414.07 1726.9,1417.59 1514.33,1629.43 503.104,1629.43 494.938,1613.71 485.576,1603.31 474.256,1595.09 461.474,1589.4 447.788,1586.49 433.796,1586.49 420.11,1589.4 407.328,1595.09 396.008,1603.31 386.644,1613.71 379.648,1625.83 375.326,1639.13 373.862,1653.05" style="stroke:rgb(0,0,0);stroke-width:1px;fill:none;stroke-opacity:1;stroke-linecap:round;stroke-linejoin:round;;fill:none"/>
<polyline points="1165.35,598.818 1165.35,515.354 1216.53,515.354 1216.53,533.464 1785.08,533.592 1846.66,472.008 1842.4,464.624 1838.08,451.316 1836.61,437.4 1838.08,423.486 1842.4,410.178 1849.4,398.06 1858.76,387.662 1870.08,379.438 1882.86,373.748 1896.55,370.838 1910.54,370.838 1924.22,373.748 1937.01,379.438 1948.33,387.662 1957.69,398.06 1965.86,413.778 2418.39,414.232 2422.82,415.576 2430.48,420.698 2835,825.22 2850.81,821.036 2863.36,821.036 2875.63,823.644 2887.09,828.746 2897.23,836.12 2905.63,845.44 2911.9,856.304 2915.77,868.234 2917.09,880.708 2915.77,893.182 2911.9,905.112 2905.63,915.974 2897.23,925.296 2887.09,932.67 2875.63,937.772 2863.36,940.38 2850.81,940.38 2838.54,937.772 2827.09,932.67 2816.94,925.296 2808.54,915.974 2802.27,905.112 2798.4,893.182 2797.09,880.708 2798.4,868.234 2801.54,858.566 2403.99,461.022 1965.86,461.022 1957.69,476.74 1948.33,487.138 1937.01,495.364 1924.22,501.054 1910.54,503.964 1896.55,503.964 1882.86,501.054 1868.79,494.426 1807.35,555.864 1806.32,564.386 1801.41,572.892 1793.47,578.666 1788.77,580.192 1216.53,580.708 1216.53,598.818 1165.35,598.818" style="stroke:rgb(99,51,159);stroke-width:0.000000;fill:none;stroke-opacity:0.5;stroke-linecap:round;stroke-linejoin:round;;fill:none"/>
<polyline points="1165.35,598.818 1165.35,515.354 1216.53,515.354 1216.53,533.464 1785.08,533.592 1846.66,472.008 1842.4,464.624 1838.08,451.316 1836.61,437.4 1838.08,423.486 1842.4,410.178 1849.4,398.06 1858.76,387.662 1870.08,379.438 1882.86,373.748 1896.55,370.838 1910.54,370.838 1924.22,373.748 1937.01,379.438 1948.33,387.662 1957.69,398.06 1965.86,413.778 2418.39,414.232 2422.82,415.576 2430.48,420.698 2835,825.22 2850.81,821.036 2863.36,821.036 2875.63,823.644 2887.09,828.746 2897.23,836.12 2905.63,845.44 2911.9,856.304 2915.77,868.234 2917.09,880.708 2915.77,893.182 2911.9,905.112 2905.63,915.974 2897.23,925.296 2887.09,932.67 2875.63,937.772 2863.36,940.38 2850.81,940.38 2838.54,937.772 2827.09,932.67 2816.94,925.296 2808.54,915.974 2802.27,905.112 2798.4,893.182 2797.09,880.708 2798.4,868.234 2801.54,858.566 2403.99,461.022 1965.86,461.022 1957.69,476.74 1948.33,487.138 1937.01,495.364 1924.22,501.054 1910.54,503.964 1896.55,503.964 1882.86,501.054 1868.79,494.426 1807.35,555.864 1806.32,564.386 1801.41,572.892 1793.47,578.666 1788.77,580.192 1216.53,580.708 1216.53,598.818 1165.35,598.818" style="stroke:rgb(0,0,0);stroke-width:1px;fill:none;stroke-opacity:1;stroke-linecap:round;stroke-linejoin:round;;fill:none"/>
<polyline points="1165.35,772.046 1165.35,688.582 1194.26,688.582 1244.22,638.622 1245.25,630.102 1250.16,621.594 1258.11,615.82 1262.8,614.294 1841.23,613.778 1849.4,598.06 1858.76,587.662 1870.08,579.438 1882.86,573.748 1896.55,570.838 1910.54,570.838 1924.22,573.748 1937.01,579.438 1948.33,587.662 1957.69,598.06 1964.69,610.178 1969.01,623.486 1970.47,637.4 1969.01,651.316 1964.5,664.948 2248.13,948.582 2891.22,948.582 2973.46,866.338 2973.46,840.708 2975.26,831.668 2980.38,824.004 3001.54,802.85 2998.4,793.182 2997.09,780.708 2998.4,768.234 3002.27,756.304 3008.54,745.44 3016.94,736.12 3027.09,728.746 3038.54,723.644 3050.81,721.036 3063.36,721.036 3075.63,723.644 3087.09,728.746 3097.23,736.12 3105.63,745.44 3111.9,756.304 3115.77,768.234 3117.09,780.708 3115.77,793.182 3111.9,805.112 3105.63,815.974 3097.23,825.296 3087.09,832.67 3075.63,837.772 3063.36,840.38 3050.81,840.38 3035.01,836.196 3020.71,850.492 3020.25,880.73 3016.73,889.246 2917.71,988.908 2910.04,994.028 2905.61,995.372 2238.35,995.826 2229.31,994.028 2221.64,988.908 1930.84,698.108 1924.22,701.054 1910.54,703.964 1896.55,703.964 1882.86,701.054 1870.08,695.364 1858.76,687.138 1849.4,676.74 1841.23,661.022 1266.49,660.894 1216.53,710.854 1216.53,772.046 1165.35,772.046" style="stroke:rgb(201,154,102);stroke-width:0.000000;fill:none;stroke-opacity:0.5;stroke-linecap:round;stroke-linejoin:round;;fill:none"/>
<polyline points="1165.35,772.046 1165.35,688.582 1194.26,688.582 1244.22,638.622 1245.25,630.102 1250.16,621.594 1258.11,615.82 1262.8,614.294 1841.23,613.778 1849.4,598.06 1858.76,587.662 1870.08,579.438 1882.86,573.748 1896.55,570.838 1910.54,570.838 1924.22,573.748 1937.01,579.438 1948.33,587.662 1957.69,598.06 1964.69,610.178 1969.01,623.486 1970.47,637.4 1969.01,651.316 1964.5,664.948 2248.13,948.582 2891.22,948.582 2973.46,866.338 2973.46,840.708 2975.26,831.668 2980.38,824.004 3001.54,802.85 2998.4,793.182 2997.09,780.708 2998.4,768.234 3002.27,756.304 3008.54,745.44 3016.94,736.12 3027.09,728.746 3038.54,723.644 3050.81,721.036 3063.36,721.036 3075.63,723.644 3087.09,728.746 3097.23,736.12 3105.63,745.44 3111.9,756.304 3115.77,768.234 3117.09,780.708 3115.77,793.182 3111.9,805.112 3105.63,815.974 3097.23,825.296 3087.09,832.67 3075.63,837.772 3063.36,840.38 3050.81,840.38 3035.01,836.196 3020.71,850.492 3020.25,880.73 3016.73,889.246 2917.71,988.908 2910.04,994.028 2905.61,995.372 2238.35,995.826 2229.31,994.028 2221.64,988.908 1930.84,698.108 1924.22,701.054 1910.54,703.964 1896.55,703.964 1882.86,701.054 1870.08,695.364 1858.76,687.138 1849.4,676.74 1841.23,661.022 1266.49,660.894 1216.53,710.854 1216.53,772.046 1165.35,772.046" style="stroke:rgb(0,0,0);stroke-width:1px;fill:none;stroke-opacity:1;stroke-linecap:round;stroke-linejoin:round;;fill:none"/>
<polyline points="1165.35,1401.97 1165.35,1318.5 1216.53,1318.5 1216.53,1336.61 1570.92,1336.61 1842.59,1064.95 1838.08,1051.32 1836.61,1037.4 1838.08,1023.49 1842.4,1010.18 1849.4,998.06 1858.76,987.662 1870.08,979.438 1882.86,973.748 1896.55,970.838 1910.54,970.838 1924.22,973.748 1937.01,979.438 1948.33,987.662 1957.69,998.06 1964.69,1010.18 1969.01,1023.49 1970.47,1037.4 1969.01,1051.32 1964.5,1064.95 2048.13,1148.58 2891.22,1148.58 2973.46,1066.34 2973.46,1040.71 2975.26,1031.67 2980.38,1024 3001.54,1002.85 2998.4,993.182 2997.09,980.708 2998.4,968.234 3002.27,956.304 3008.54,945.44 3016.94,936.12 3027.09,928.746 3038.54,923.644 3050.81,921.036 3063.36,921.036 3075.63,923.644 3087.09,928.746 3097.23,936.12 3105.63,945.44 3111.9,956.304 3115.77,968.234 3117.09,980.708 3115.77,993.182 3111.9,1005.11 3105.63,1015.97 3097.23,1025.3 3087.09,1032.67 3075.63,1037.77 3063.36,1040.38 3050.81,1040.38 3035,1036.2 3020.71,1050.49 3020.25,1080.73 3016.73,1089.25 2917.71,1188.91 2910.04,1194.03 2905.61,1195.37 2038.35,1195.83 2029.31,1194.03 2021.64,1188.91 1930.84,1098.11 1924.22,1101.05 1910.54,1103.96 1896.55,1103.96 1882.86,1101.05 1876.24,1098.11 1597.41,1376.94 1589.75,1382.06 1580.71,1383.86 1216.53,1383.86 1216.53,1401.97 1165.35,1401.97" style="stroke:rgb(50,13,183);stroke-width:0.000000;fill:none;stroke-opacity:0.5;stroke-linecap:round;stroke-linejoin:round;;fill:none"/>
<polyline points="1165.35,1401.97 1165.35,1318.5 1216.53,1318.5 1216.53,1336.61 1570.92,1336.61 1842.59,1064.95 1838.08,1051.32 1836.61,1037.4 1838.08,1023.49 1842.4,1010.18 1849.4,998.06 1858.76,987.662 1870.08,979.438 1882.86,973.748 1896.55,970.838 1910.54,970.838 1924.22,973.748 1937.01,979.438 1948.33,987.662 1957.69,998.06 1964.69,1010.18 1969.01,1023.49 1970.47,1037.4 1969.01,1051.32 1964.5,1064.95 2048.13,1148.58 2891.22,1148.58 2973.46,1066.34 2973.46,1040.71 2975.26,1031.67 2980.38,1024 3001.54,1002.85 2998.4,993.182 2997.09,980.708 2998.4,968.234 3002.27,956.304 3008.54,945.44 3016.94,936.12 3027.09,928.746 3038.54,923.644 3050.81,921.036 3063.36,921.036 3075.63,923.644 3087.09,928.746 3097.23,936.12 3105.63,945.44 3111.9,956.304 3115.77,968.234 3117.09,980.708 3115.77,993.182 3111.9,1005.11 3105.63,1015.97 3097.23,1025.3 3087.09,1032.67 3075.63,1037.77 3063.36,1040.38 3050.81,1040.38 3035,1036.2 3020.71,1050.49 3020.25,1080.73 3016.73,1089.25 2917.71,1188.91 2910.04,1194.03 2905.61,1195.37 2038.35,1195.83 2029.31,1194.03 2021.64,1188.91 1930.84,1098.11 1924.22,1101.05 1910.54,1103.96 1896.55,1103.96 1882.86,1101.05 1876.24,1098.11 1597.41,1376.94 1589.75,1382.06 1580.71,1383.86 1216.53,1383.86 1216.53,1401.97 1165.35,1401.97" style="stroke:rgb(0,0,0);stroke-width:1px;fill:none;stroke-opacity:1;stroke-linecap:round;stroke-linejoin:round;;fill:none"/>
</svg>
